<svg xmlns="http://www.w3.org/2000/svg" xmlns:xlink="http://www.w3.org/1999/xlink" viewBox="0 0 2800 1900"><defs><linearGradient id="a" x1="379.025" x2="856.89" y1="880.933" y2="880.933" gradientUnits="userSpaceOnUse"><stop offset="0" stop-color="#f4f4f4"/><stop offset="1" stop-color="#303030"/></linearGradient><linearGradient xlink:href="#a" id="r" x1="2021.948" x2="2076.225" y1="1086.876" y2="1086.876"/><linearGradient xlink:href="#a" id="f" x1="379.025" x2="715.429" y1="865.926" y2="865.926"/><linearGradient xlink:href="#a" id="i" x1="1736.21" x2="1790.486" y1="1057.11" y2="1057.11"/><linearGradient xlink:href="#a" id="l" x1="1831.456" x2="1885.732" y1="1067.032" y2="1067.032"/><linearGradient xlink:href="#a" id="o" x1="1926.702" x2="1980.978" y1="1076.954" y2="1076.954"/><linearGradient id="b" x1="379.025" x2="856.89" y1="880.933" y2="880.933" gradientUnits="userSpaceOnUse"><stop offset="0" stop-color="#cfe7e5"/><stop offset="1" stop-color="#cfe7e5"/></linearGradient><linearGradient xlink:href="#b" id="v" x1="379.025" x2="715.429" y1="865.926" y2="865.926"/><linearGradient xlink:href="#b" id="D" x1="1736.21" x2="1790.486" y1="1057.11" y2="1057.11"/><linearGradient xlink:href="#b" id="F" x1="1831.456" x2="1885.732" y1="1067.032" y2="1067.032"/><linearGradient xlink:href="#b" id="H" x1="1926.702" x2="1980.978" y1="1076.954" y2="1076.954"/><linearGradient xlink:href="#b" id="J" x1="2021.948" x2="2076.225" y1="1086.876" y2="1086.876"/><filter id="c" width="477.865" height="336.234" x="379.025" y="712.816" color-interpolation-filters="sRGB" filterUnits="userSpaceOnUse"><feFlood flood-color="#fff" result="bg"/><feBlend in="SourceGraphic" in2="bg"/></filter><filter id="d" width="336.404" height="306.221" x="379.025" y="712.816" color-interpolation-filters="sRGB" filterUnits="userSpaceOnUse"><feFlood flood-color="#fff" result="bg"/><feBlend in="SourceGraphic" in2="bg"/></filter><filter id="g" width="54.276" height="62.316" x="1736.21" y="1025.952" color-interpolation-filters="sRGB" filterUnits="userSpaceOnUse"><feFlood flood-color="#fff" result="bg"/><feBlend in="SourceGraphic" in2="bg"/></filter><filter id="k" width="54.276" height="62.316" x="1831.456" y="1035.874" color-interpolation-filters="sRGB" filterUnits="userSpaceOnUse"><feFlood flood-color="#fff" result="bg"/><feBlend in="SourceGraphic" in2="bg"/></filter><filter id="m" width="54.276" height="62.316" x="1926.702" y="1045.796" color-interpolation-filters="sRGB" filterUnits="userSpaceOnUse"><feFlood flood-color="#fff" result="bg"/><feBlend in="SourceGraphic" in2="bg"/></filter><filter id="p" width="54.276" height="62.316" x="2021.948" y="1055.718" color-interpolation-filters="sRGB" filterUnits="userSpaceOnUse"><feFlood flood-color="#fff" result="bg"/><feBlend in="SourceGraphic" in2="bg"/></filter><mask id="s" width="477.865" height="336.234" x="379.025" y="712.816" maskUnits="userSpaceOnUse"><g filter="url(#c)" mask="url(#h)"><path fill="url(#a)" d="M838.774 1049.05s-105.138-8.066-214.828-30.013c-124.38-24.877-254.665-67.599-244.345-136.504 79.36-89.185 174.584-169.717 174.584-169.717s79.81 18.071 161.244 33.754c54.034 10.41 108.789 19.739 141.461 22.082-31.14 137.585-18.116 280.398-18.116 280.398" style="mix-blend-mode:multiply"/></g></mask><mask id="u" width="336.404" height="306.221" x="379.025" y="712.816" maskUnits="userSpaceOnUse"><g filter="url(#d)" mask="url(#j)"><path fill="url(#f)" d="M715.43 746.57s-42.993 204.192-91.484 272.467c-124.38-24.877-254.665-67.599-244.345-136.504 79.36-89.185 174.584-169.717 174.584-169.717s79.81 18.071 161.244 33.754" style="mix-blend-mode:multiply"/></g></mask><mask id="C" width="54.276" height="62.316" x="1736.21" y="1025.952" maskUnits="userSpaceOnUse"><g filter="url(#g)" mask="url(#n)"><path fill="url(#i)" d="m1769.475 1088.146-20.456-2.643a14.575 14.575 0 0 1-12.256-18.333 92.4 92.4 0 0 0 3.715-26.415 14.623 14.623 0 0 1 16.494-14.68l20.7 2.674a14.6 14.6 0 0 1 12.795 14.071c.228 11.15-1.62 22.86-5.065 34.997a14.576 14.576 0 0 1-15.928 10.329" style="mix-blend-mode:multiply"/></g></mask><mask id="E" width="54.276" height="62.316" x="1831.456" y="1035.874" maskUnits="userSpaceOnUse"><g filter="url(#k)" mask="url(#q)"><path fill="url(#l)" d="m1864.72 1098.068-20.455-2.643a14.575 14.575 0 0 1-12.255-18.333 92.4 92.4 0 0 0 3.714-26.415 14.623 14.623 0 0 1 16.495-14.68l20.699 2.675a14.6 14.6 0 0 1 12.795 14.07c.228 11.15-1.62 22.86-5.065 34.998a14.576 14.576 0 0 1-15.927 10.328" style="mix-blend-mode:multiply"/></g></mask><mask id="G" width="54.276" height="62.316" x="1926.702" y="1045.796" maskUnits="userSpaceOnUse"><g filter="url(#m)" mask="url(#t)"><path fill="url(#o)" d="m1959.967 1107.99-20.456-2.643a14.575 14.575 0 0 1-12.255-18.333 92.4 92.4 0 0 0 3.714-26.415 14.623 14.623 0 0 1 16.495-14.68l20.7 2.674a14.6 14.6 0 0 1 12.795 14.071c.227 11.15-1.62 22.86-5.066 34.998a14.576 14.576 0 0 1-15.927 10.328" style="mix-blend-mode:multiply"/></g></mask><mask id="I" width="54.276" height="62.316" x="2021.948" y="1055.718" maskUnits="userSpaceOnUse"><g filter="url(#p)" mask="url(#w)"><path fill="url(#r)" d="m2055.213 1117.912-20.456-2.643a14.575 14.575 0 0 1-12.255-18.333 92.4 92.4 0 0 0 3.714-26.415 14.623 14.623 0 0 1 16.495-14.68l20.7 2.674a14.6 14.6 0 0 1 12.795 14.071c.228 11.15-1.62 22.86-5.066 34.997a14.576 14.576 0 0 1-15.927 10.329" style="mix-blend-mode:multiply"/></g></mask></defs><g data-name="Layer 1"><path fill="#224e6b" d="M554.165 712.832s81.118-63.484 130.494-86.997 231.218-69.361 330.16-58.78 388.147 178.276 1192.274 397.151c162.236-63.274 268.042-152.622 333.877-156.149 37.88-2.029 87.827 7.618 123.413 16.177 19.08 4.588 25.32 28.62 10.827 41.852-40 36.517-105.326 100.544-138.942 157.412-50.552 85.52-71.713 106.68-119.914 106.68l-34.093-25.863s-195.154 17.634-216.315 34.093c-11.756 17.634 28.215 39.97 28.215 39.97l-331.526 59.958s-193.978-158.454-231.01-169.456-206.322-28.637-366.795-19.82-152.44 54.667-174.973 91.699c159.102 116.387 331.919 229.247 331.919 229.247s-871.138-14.108-1107.438-98.753S2.21 1091.6 379.585 882.524c48.788-34.495 145.19-131.412 174.58-169.692"/><path d="M2664.344 824.225c19.091 4.582 25.35 28.618 10.851 41.856-40 36.523-105.316 100.546-138.935 157.417-50.564 85.535-71.7 106.67-119.92 106.67l-34.07-25.867s-195.178 17.665-216.314 34.115c-11.762 17.62 28.21 39.973 28.21 39.973l-331.547 59.937s-193.962-158.45-231.006-169.446c-36.999-10.997-206.31-28.618-366.789-19.83-160.478 8.833-152.412 54.665-174.944 91.709 159.081 116.404 331.908 229.249 331.908 229.249s-871.163-14.106-1107.442-98.74c-127.266-45.606-207.933-94.186-196.441-161.965 151.826 209.87 1022.854 210.817 1022.854 210.817s-29.338-162.913-475.983-253.088c-225.554-45.561-311.494-104.778-341.282-152.277q26.228-15.615 56.107-32.222c48.76-34.52 145.156-131.411 174.584-169.717 0 0 9.96-7.796 25.011-18.928 56.377 13.79 139.929 33.259 194.548 41.686 80.262 12.348 119.154-69.671 134.025-164.76 39.298-4.957 76.972-6.94 107.031-3.74 57.324 6.129 178.55 64.985 426.771 156.017-20.865 34.926-43.803 80.307-35.646 99.865 14.105 33.89 330.285 57.955 330.285 57.955l16.134-51.105c129.473 41.64 279.947 86.797 454.757 134.386l159.893 37.45 270.618-183.372a819 819 0 0 1 26.732 5.955" opacity=".5" style="mix-blend-mode:soft-light"/><path fill="#6484ca" d="m1761.85 1089.04-21.593-2.79a15.385 15.385 0 0 1-12.936-19.352 97.5 97.5 0 0 0 3.92-27.883 15.436 15.436 0 0 1 17.412-15.496l21.85 2.823a15.414 15.414 0 0 1 13.506 14.853c.241 11.77-1.71 24.13-5.347 36.942a15.386 15.386 0 0 1-16.812 10.902m100.54 10.474-21.593-2.79a15.385 15.385 0 0 1-12.936-19.352 97.5 97.5 0 0 0 3.92-27.883 15.436 15.436 0 0 1 17.412-15.496l21.85 2.823a15.414 15.414 0 0 1 13.506 14.853c.24 11.77-1.71 24.13-5.347 36.943a15.386 15.386 0 0 1-16.812 10.902m100.54 10.473-21.593-2.79a15.385 15.385 0 0 1-12.937-19.351 97.5 97.5 0 0 0 3.921-27.883 15.436 15.436 0 0 1 17.412-15.496l21.85 2.823a15.414 15.414 0 0 1 13.506 14.853c.24 11.77-1.71 24.13-5.347 36.942a15.386 15.386 0 0 1-16.812 10.902m100.54 10.474-21.593-2.79a15.385 15.385 0 0 1-12.937-19.352 97.5 97.5 0 0 0 3.92-27.883 15.436 15.436 0 0 1 17.413-15.496l21.85 2.823a15.414 15.414 0 0 1 13.506 14.853c.24 11.77-1.71 24.13-5.347 36.942a15.386 15.386 0 0 1-16.813 10.903"/><path fill="#cc805e" d="m1316.235 900.505 67.92-28.964s323.298 32.065 373.85 28.964c3.526-45.423 19.397-53.652 44.085-93.036s18.81-83.469 42.323-51.14 15.283 68.775-9.993 89.936c95.226-26.452 156.358-34.68 146.953-11.756s-112.86 57.605-112.86 57.605 136.373-20.573 129.907 1.764-114.036 42.322-114.036 42.322 114.623-4.702 119.326 18.81-122.853 17.047-122.853 17.047 71.713 34.68 71.713 52.903-94.05-21.75-94.05-21.75-42.322 25.277-95.813-22.336c-129.907 34.093-412.627 60.898-412.627 60.898Z"/><path d="M1880.871 972.079s38.576 18.656 59.126 35.782c-21.18-9.69-49.167-20.64-53.853-13.475-4.507 6.985 22.397 22.352 45.02 33.664-27.76-5.769-72.646-24.831-72.646-24.831s-42.316 25.281-95.81-22.353c-129.923 34.115-412.62 60.884-412.62 60.884l-33.844-141.236 67.914-28.977s4.732.45 13.114 1.307c17.846 29.743 45.606 65.435 81.794 81.839 66.156 30.014 266.923.946 278.956-54.169.316-3.83.676-7.39 1.172-10.725 5.092-36.323 20.28-46.283 42.902-82.335 22.488-35.873 19.604-75.665 36.729-57.955-5.003 8.157-9.69 20.1-13.205 37.405-11.176 55.025-5.813 61.604 9.33 58.9-.181.136-.362.316-.542.451 3.56-.991 7.075-1.938 10.546-2.884.18-.045.405-.135.63-.18.721-.18 1.533-.406 2.48-.676 46.597-12.483 83.956-20.145 107.3-21.271-23.975 3.695-50.608 11.491-63.948 27.94-22.578 27.851 27.806 13.385 71.069 2.299-31.411 19.378-90.086 39.342-93.782 40.604 3.876-.54 75.17-11.086 110.456-8.067-29.158 2.299-69.13 8.473-78.91 25.147-7.977 13.61 20.91 13.7 51.555 10.455-31.546 9.915-67.418 16.584-67.418 16.584s45.02-1.847 79.811 2.569c-28.707-.09-59.486 2.343-67.463 12.709-9.915 12.888 36.097 17.485 71.88 19.062-36.368 4.146-87.743 1.532-87.743 1.532" opacity=".5" style="mix-blend-mode:soft-light"/><path fill="#e5e1e1" d="M1384.158 871.537s-15.277 109.284-35.557 175.17c-21.18 64.94-258.721 94.052-258.721 94.052s-49.933-5.228-121.362-30.645a737 737 0 0 1-52.231-20.91 710 710 0 0 1-56.648-28.166 630 630 0 0 1-20.865-11.988S825.75 906.237 856.89 768.652l78.955 12.844 26.048 4.281h.09l11.312 1.848 8.652 1.397 1.307.225 86.797 19.92 41.595 9.553 45.607 10.5 13.384 2.479Z"/><path fill="#6484ca" d="M2592.682 1292.404c-15.367 5.724-85.219 7.437-135.828 7.662a209.4 209.4 0 0 1-105.138-27.896c-62.19-35.737-157.55-93.781-157.55-93.781l-.09-.045c-2.027-1.172-39.567-22.803-28.12-39.929 21.135-16.449 216.315-34.114 216.315-34.114l34.07 25.867c34.114 25.868 200.18 153.449 176.34 162.236m-276.837 352.684c-37.495 13.79-80.622 22.217-125.688 26.318-138.126 12.484-276.657-19.288-397.433-87.472-145.743-82.245-370.935-213.926-370.935-213.926s-172.827-112.845-331.908-229.249c22.532-37.044 14.466-82.876 174.944-91.709 160.479-8.787 329.79 8.833 366.79 19.83 31.816 9.463 179.54 127.805 220.46 160.883.09.09.18.181.27.181q4.394 3.717 8.788 7.165c.496.45.992.812 1.487 1.216 137.406 107.798 573.144 362.689 453.225 406.763"/><path d="M2592.682 1292.404c-12.168 4.552-58.63 6.535-102.57 7.301-45.831-41.73-118.342-97.342-139.613-113.475l-34.07-25.868s-67.778 6.13-127.805 14.556c-10.546-6.94-31.636-23.073-22.668-36.503 21.135-16.449 216.315-34.115 216.315-34.115l34.07 25.868c34.114 25.868 200.18 153.449 176.34 162.236m-276.837 352.684c-37.495 13.79-80.622 22.217-125.688 26.318q-23.794 2.164-47.59 2.524c-77.287-95.179-349.663-259.623-453.089-340.741-.495-.406-.991-.766-1.487-1.217q-4.394-3.448-8.787-7.165c-.09 0-.181-.09-.27-.18-40.92-33.079-188.646-151.421-220.462-160.885-36.818-10.95-204.643-28.436-364.4-19.919-1.397-1.036-2.794-2.028-4.191-3.064 22.532-37.044 14.466-82.876 174.944-91.709 160.479-8.788 329.79 8.833 366.79 19.83 31.816 9.463 179.54 127.805 220.46 160.883.09.09.18.181.27.181q4.394 3.717 8.788 7.165c.496.45.992.812 1.487 1.216 137.406 107.798 573.144 362.689 453.225 406.763" opacity=".5" style="mix-blend-mode:soft-light"/><g mask="url(#s)"><path fill="url(#b)" d="M838.774 1049.05s-105.138-8.066-214.828-30.013c-124.38-24.877-254.665-67.599-244.345-136.504 79.36-89.185 174.584-169.717 174.584-169.717s79.81 18.071 161.244 33.754c54.034 10.41 108.789 19.739 141.461 22.082-31.14 137.585-18.116 280.398-18.116 280.398"/></g><path fill="#2d2d2d" d="m1298.919 856.513-5.811 26.67a9.074 9.074 0 0 1-10.118 7.055l-27.066-3.77-15.43-2.266-20.517-2.891-42.623-5.761a9.074 9.074 0 0 1-7.802-10l3.593-32.12a9.074 9.074 0 0 1 10.688-7.91l40.034 7.502 21.205 3.982 14.926 2.707 31.728 5.952a9.074 9.074 0 0 1 7.193 10.85"/><path fill="#ffd110" d="m1245.01 836.977-4.495 47.243-20.57-2.808 3.895-48.384zm53.888 19.473-5.808 26.684a9.074 9.074 0 0 1-10.103 7.06l-26.993-3.717 3.957-46.842 31.756 5.968a9.074 9.074 0 0 1 7.19 10.847"/><path fill="#2d2d2d" d="m913.051 772.913-40.592-3.357-21.503-1.77-6.934-.615c-.185 4.315-.486 8.619-.826 12.92q-.597 10.474-1.922 20.875-.31 3.127-.617 6.255c-.22 2.296-.298 4.63-.338 6.978l2.565.314 20.551 2.64 42.628 5.72a9.074 9.074 0 0 0 10.17-7.58l5.033-31.924a9.073 9.073 0 0 0-8.215-10.456"/><path fill="#ffd110" d="m851.023 767.776-8.164 46.749 20.58 2.734 9.045-47.691z"/><g mask="url(#u)"><path fill="url(#v)" d="M715.43 746.57s-42.993 204.192-91.484 272.467c-124.38-24.877-254.665-67.599-244.345-136.504 79.36-89.185 174.584-169.717 174.584-169.717s79.81 18.071 161.244 33.754"/></g><path fill="#6484ca" d="M856.89 768.652c-32.672-2.343-87.427-11.672-141.46-22.082-81.434-15.683-161.245-33.754-161.245-33.754S458.96 793.348 379.6 882.533c-10.32 68.905 119.964 111.627 244.345 136.504 109.69 21.947 214.828 30.013 214.828 30.013S825.75 906.237 856.89 768.652m-47.995 257.64s-90.897-6.985-185.76-25.958c-107.571-21.496-220.19-58.45-211.267-118.026 68.59-77.108 150.924-146.734 150.924-146.734s69.04 15.593 139.433 29.158c46.733 9.013 94.097 17.08 122.353 19.107-26.949 118.974-15.683 242.453-15.683 242.453"/><path fill="#6484ca" d="M697.003 751.921s-35.268 166.645-82.881 254.817c16.753 4.408 24.6 6.504 24.6 6.504s66.918-133.472 76.707-249.858c0-16.814-18.426-11.463-18.426-11.463"/><path fill="#2d2d2d" d="M996.684 955.314s-12.438 74.313-28.166 154.8a737 737 0 0 1-52.231-20.91 710 710 0 0 1-56.648-28.166c36.82-64.399 72.466-122.624 72.466-122.624l12.438-.946 24.335-1.893Z"/><path fill="#424242" d="M912.493 877.316c-.583 2.862.13 7.591 1.572 13.15l-.01.039c4.787 18.96 18.05 47.91 18.05 47.91s20.493 9.233 64.58 16.92c17.48-7.352 53.995-33.748 53.995-33.748s36.807-29.42-26.92-52.782c-63.686-23.309-108.687-4.103-111.267 8.51"/><path d="M1050.672 921.605s-1.171.856-3.2 2.298c-9.238 6.535-36.412 25.372-50.788 31.41 0 0-12.438 74.314-28.166 154.801a737 737 0 0 1-52.231-20.91c9.509-62.416 13.294-119.65 15.818-150.79 4.371-.18 8.562-.495 12.438-.946 42.722-4.867 59.261-24.02 47.544-36.503-12.528-13.385-75.935-10.545-78.008-10.455v-.046c-1.443-5.543-2.163-10.274-1.578-13.159.541-2.703 3.11-5.723 7.346-8.562 11.086-7.436 33.934-13.565 64.354-9.734 3.92.495 7.976 1.126 12.122 1.983 3.56.72 7.21 1.532 10.951 2.523v.045c5.318 1.398 10.861 3.155 16.494 5.228 1.487.54 2.93 1.082 4.326 1.667h.09c57.55 23.119 22.488 51.15 22.488 51.15" opacity=".3" style="mix-blend-mode:soft-light"/><path fill="#f4f4f4" d="M889.893 905.277a5 5 0 0 1 .178.81c18.881-18.023 70.892-36.75 107.995-38.154a.5.5 0 0 1 .167.002c48.975 37.754 76.75 107.914 76.75 107.914l1.002-.63c5.474-3.448 32.711-21.236 47.658-43.39 16.624-24.729 49.315-102.272 49.25-107.554s-61.686-67.112-61.686-67.112-57.548 2.628-108.627 9.498c-7.114.981-14.123 1.99-20.83 3.12-54.749 9.178-68.906 24.279-68.906 24.279s-34.007 55.543-22.951 111.217"/><path d="M950.143 830.845s38.839 34.287 48.09 37.09c23.838 3.697 101.427 4.791 101.427 4.791s-3.057 36.564-9.178 59.077c-6.164 22.46-14.497 43.416-14.497 43.416 5.474-3.448 32.711-21.236 47.658-43.39 16.624-24.729 49.315-102.272 49.25-107.554s-61.686-67.112-61.686-67.112-57.548 2.628-108.627 9.498l-49.76 53.964a33.7 33.7 0 0 0-2.677 10.22" style="mix-blend-mode:soft-light"/><path d="M889.893 905.277a5 5 0 0 1 .178.81c18.881-18.023 70.892-36.75 107.995-38.154-3.108-.474-53.183-7.65-80.195 1.408-15.913 9.885-23.958 24.421-27.978 35.936" style="mix-blend-mode:soft-light"/><path fill="#cc805e" d="m1133.42 735.563-25.798 98.466s-71.725 24.683-106.757 30.735c-25.727-21.14-48.054-44.157-48.054-44.157l21.317-81.365Z"/><path d="M1065.644 817.237c-27.763 27.033-48.862 34.582-70.76 28.803-20.428-5.437-39.34-22.833-41.802-25.134 2.557 2.58 23.64 24.027 47.768 43.85 35.035-6.063 106.78-30.745 106.78-30.745l25.794-98.456-159.285 3.7-21.318 81.37s17.577-36.664 27.257-37.44c0 0 113.393 6.992 85.566 34.052" opacity=".5" style="mix-blend-mode:soft-light"/><path d="M1759.194 889.789a54 54 0 0 1-1.172 10.725c.316-3.83.676-7.39 1.172-10.725"/><g mask="url(#C)"><path fill="url(#D)" d="m1769.475 1088.146-20.456-2.643a14.575 14.575 0 0 1-12.256-18.333 92.4 92.4 0 0 0 3.715-26.415 14.623 14.623 0 0 1 16.494-14.68l20.7 2.674a14.6 14.6 0 0 1 12.795 14.071c.228 11.15-1.62 22.86-5.065 34.997a14.576 14.576 0 0 1-15.928 10.329"/></g><g mask="url(#E)"><path fill="url(#F)" d="m1864.72 1098.068-20.455-2.643a14.575 14.575 0 0 1-12.255-18.333 92.4 92.4 0 0 0 3.714-26.415 14.623 14.623 0 0 1 16.495-14.68l20.699 2.675a14.6 14.6 0 0 1 12.795 14.07c.228 11.15-1.62 22.86-5.065 34.998a14.576 14.576 0 0 1-15.927 10.328"/></g><g mask="url(#G)"><path fill="url(#H)" d="m1959.967 1107.99-20.456-2.643a14.575 14.575 0 0 1-12.255-18.333 92.4 92.4 0 0 0 3.714-26.415 14.623 14.623 0 0 1 16.495-14.68l20.7 2.674a14.6 14.6 0 0 1 12.795 14.071c.227 11.15-1.62 22.86-5.066 34.998a14.576 14.576 0 0 1-15.927 10.328"/></g><g mask="url(#I)"><path fill="url(#J)" d="m2055.213 1117.912-20.456-2.643a14.575 14.575 0 0 1-12.255-18.333 92.4 92.4 0 0 0 3.714-26.415 14.623 14.623 0 0 1 16.495-14.68l20.7 2.674a14.6 14.6 0 0 1 12.795 14.071c.228 11.15-1.62 22.86-5.066 34.997a14.576 14.576 0 0 1-15.927 10.329"/></g><path fill="#cc805e" d="M1162.65 750.043c8.664 12.918 23.561 15.333 39.364 11.106 30.965-8.218 65.369-41.815 63.031-71.34-.936-11.573-5.273-18.356-11.23-22.056-16.982-10.54-46.967 4.068-46.967 4.068s-69.829 39.985-44.198 78.222"/><path d="M1162.65 750.043c8.664 12.918 23.561 15.333 39.364 11.106-12.746-4.12-16.797-11.975-5.474-18.288 14.834-8.26 50.506-20.64 54.575-36.75 4.1-16.121-24.356-9.513-24.356-9.513 6.778-18.578 18.045-25.979 27.056-28.845-16.982-10.54-46.967 4.068-46.967 4.068s-69.829 39.985-44.198 78.222" opacity=".45" style="mix-blend-mode:soft-light"/><path fill="#914027" d="M1184.467 720.796a56.2 56.2 0 0 1 12.328-15.78 58.8 58.8 0 0 1 16.974-11.258c6.351-2.707 13.449-4.392 20.586-3.72a30.08 30.08 0 0 1 18.462 8.742 54.6 54.6 0 0 0-18.482-1.91 64 64 0 0 0-17.077 4.917c-11.175 4.763-21.474 11.966-32.79 19.01"/><path fill="#212021" d="M1328.486 570.106a182.8 182.8 0 0 1-18.5 35.565 202 202 0 0 1-12.264 16.625 210 210 0 0 1-7.701 9.063 251 251 0 0 1-15.859 16.153 332 332 0 0 1-41.168 32.77l-46.948 46.73-308.96-119.719 10.464-176.677s9.776-31.972 48.69-63.008c15.911-12.727 36.699-25.267 63.664-35.42 48.249-18.154 116.255-28.63 211.597-18.695l-26.855 42.083s44.172 16.344 87.343 50.39a277 277 0 0 1 22.038 19.197c14.655 14.185 28.244 30.613 38.717 49.357 0 0 4.152 10.229 5.733 27.284a142 142 0 0 1 .24 22.733 155.7 155.7 0 0 1-10.232 45.569"/><path fill="#353535" d="M1055.727 479.757c-2.204-91.737 125.18-123.262 128.833-124.159-175.39 26.606-154.98 118.357-154.98 118.357-118.804-160.12 181.92-160.462 181.92-160.462l-26.855 42.084s44.172 16.344 87.343 50.39c-149.17-16.838-216.262 73.79-216.262 73.79"/><path fill="#353535" d="M1089.52 476.93c61.83-62.327 164.527-56.776 204.507-51.767 14.655 14.185 28.244 30.613 38.717 49.357 0 0 4.152 10.229 5.733 27.284-19.658-7.572-44.68-19.545-90.28-34.215-78.869-25.383-156.43 8.377-158.676 9.341m249.196 47.607a155.7 155.7 0 0 1-10.232 45.569c-70.432-23.471-90.467-77.34-90.467-77.34 31.747 18.668 68.983 27.62 100.7 31.771m-113.758 42.475-5.61 7.331c9.154 26.703 42.851 45.56 70.67 57.016a251 251 0 0 1-15.858 16.153c-58.927-22.382-80.786-72.062-80.786-72.062s-.621-105.286 42.364-36.327a178.8 178.8 0 0 0 74.246 66.548 202 202 0 0 1-12.264 16.625c-50.407-24.88-72.763-55.284-72.763-55.284"/><path fill="#cc805e" d="M924.76 697.263c-13.314 8.042-27.835 3.93-40.367-6.583-24.584-20.543-41.551-65.537-26.947-91.304 5.744-10.091 12.542-14.403 19.505-15.236 19.846-2.37 40.84 23.549 40.84 23.549s46.366 65.765 6.969 89.574"/><path d="M924.76 697.263c-13.314 8.042-27.835 3.93-40.367-6.583 13.292 1.657 20.285-3.749 12.695-14.258-9.95-13.758-37.038-40.063-33.913-56.382 3.103-16.342 26.095 1.68 26.095 1.68 1.714-19.702-5.366-31.173-12.319-37.58 19.846-2.37 40.84 23.549 40.84 23.549s46.366 65.765 6.969 89.574" opacity=".45" style="mix-blend-mode:soft-light"/><path fill="#914027" d="M917.359 661.534c-7.276-11.17-13.563-22.052-21.675-31.094a64 64 0 0 0-13.395-11.678 54.6 54.6 0 0 0-17.555-6.085 30.07 30.07 0 0 1 20.427-.114c6.751 2.41 12.47 6.938 17.08 12.077a58.8 58.8 0 0 1 10.621 17.38 56.2 56.2 0 0 1 4.497 19.514"/><path fill="#cc805e" d="m1219.474 676.432-43.817 76.38c-49.692 45.289-146.63 68.842-174.779 74.929a35.55 35.55 0 0 1-17.478-.653c-18.23-5.248-48.18-17.687-62.99-24.029a26.1 26.1 0 0 1-9.524-6.812 27 27 0 0 1-3.983-5.847c-2.024-4.065-4.066-8.567-6.097-13.233-.213-.456-.417-.943-.63-1.398-3.037-7.163-6.106-14.834-9.043-22.503-.204-.487-.346-.958-.52-1.437-7.176-18.979-13.487-37.83-17.07-49.1a44.2 44.2 0 0 1-1.693-20.829l13.42-87.005 21.584-139.732s.008-.03.087-.077c8.797-11.997 27.636-21.541 41.6-27.378a20.454 20.454 0 0 1 25.059 7.884c10.384 16.163 31.06 41.405 62.632 49.844 40.998 10.96 99.092-6.999 120.523-11.097 3.922-.73 28.665 3.94 32.315 5.504 42.072 17.738 69.208 65.801 69.208 65.801-94.788 66.615-38.804 130.788-38.804 130.788"/><path fill="#b25734" d="M1002.51 752.807c-4.375 2.856-9.547 3.986-14.6 4.416a51 51 0 0 1-15.169-1.09 55 55 0 0 1-14.15-5.273 44 44 0 0 1-12.044-9.127 129 129 0 0 1 14.45 2.765l13.637 3.128c9.071 2.009 17.838 3.766 27.877 5.18"/><path fill="#353535" d="M995.656 447.692c-33.846-28.076-51.166-55.899-59.416-80.084 15.911-12.727 36.699-25.267 63.664-35.42-52.074 48.03-6.388 112.509-4.248 115.504"/><path fill="#212021" d="M1048.126 569.452c-1.212 16.711 6.132 22.596 6.132 22.596a189.5 189.5 0 0 1 32.024-5.204c.912-.07 1.82-.12 2.71-.194.65-.018 1.28-.062 1.907-.084a136 136 0 0 1 23.995 1.033c1.495.201 2.892.434 4.242.683 1.44.262 2.808.536 4.06.817 9.284 2.039 14.015 4.55 14.015 4.55a72.6 72.6 0 0 0-10.168-13.102c-1.187-1.171-2.382-2.298-3.612-3.337a59 59 0 0 0-3.594-2.85 58.4 58.4 0 0 0-20.767-9.608 49 49 0 0 0-3.063-.69 71 71 0 0 0-3.063-.53c-23.58-3.49-44.818 5.92-44.818 5.92"/><path fill="#353535" d="M1123.43 577.21a51.2 51.2 0 0 0-4.294 11.072c1.44.262 2.808.536 4.06.817a44.7 44.7 0 0 1 3.847-8.552c-1.187-1.171-2.382-2.298-3.612-3.337m-24.361-12.458c-5.102 6.745-7.244 15.483-8.17 21.814a136 136 0 0 1 23.994 1.033 58.6 58.6 0 0 1 4.943-13.24 58.4 58.4 0 0 0-20.767-9.607m-12.788 22.092c.912-.07 1.82-.12 2.71-.194a61.8 61.8 0 0 1 7.015-22.589 71 71 0 0 0-3.063-.528 62.5 62.5 0 0 0-6.662 23.311"/><path fill="#212021" d="M992.558 553.006c-5.683 15.762-14.785 18.155-14.785 18.155a189.5 189.5 0 0 0-27.147-17.767c-.804-.435-1.614-.849-2.397-1.279-.586-.28-1.144-.576-1.709-.851a136 136 0 0 0-22.344-8.805 88 88 0 0 0-4.153-1.1 104 104 0 0 0-4.042-.904c-9.312-1.909-14.655-1.536-14.655-1.536a72.6 72.6 0 0 1 14.614-7.84c1.561-.589 3.11-1.133 4.657-1.583a59 59 0 0 1 4.442-1.143 58.4 58.4 0 0 1 22.88-.342 49 49 0 0 1 3.078.614c1.026.236 2.023.488 3.014.762 22.964 6.392 38.547 23.619 38.547 23.619"/><path fill="#353535" d="M920.597 529.496a51.2 51.2 0 0 1-.574 11.863 104 104 0 0 0-4.042-.904 44.7 44.7 0 0 0-.041-9.376c1.561-.589 3.11-1.133 4.657-1.583m27.321-1.485c1.921 8.237.328 17.091-1.398 23.253a136 136 0 0 0-22.344-8.805 58.6 58.6 0 0 0 .863-14.106 58.4 58.4 0 0 1 22.88-.342m2.707 25.383c-.804-.435-1.614-.849-2.397-1.279a61.8 61.8 0 0 0 2.768-23.49c1.026.236 2.023.488 3.014.762a62.5 62.5 0 0 1-3.385 24.007"/><path fill="#ffb012" d="m1350.426 548.612-32.03 43.752c-22.601-24.91-60.36-46.655-60.36-46.655l-20.723-12.64-161.877-49.915-167.413-75.44-6.448-2.725 2.002-15.34.16-2.519s-35.29-36.96-22.207-72.919c13.204-36.436 178.198-95.233 228.395-87.606 50.07 8.103 282.23 162.064 298.747 229.388 16.033 67.192-58.246 92.62-58.246 92.62"/><path d="M1350.426 548.612C1113.048 334.92 903.736 387.13 903.736 387.13a109.7 109.7 0 0 1-16.833-25.43c-6.794-13.054-11.36-30.64-5.373-47.488 13.204-36.437 178.198-95.234 228.395-87.607 3.473.405 7.173 1.894 11.836 3.638 67.257 24.414 271.772 162.886 286.911 225.75 16.033 67.192-58.246 92.62-58.246 92.62"/><path fill="#2d2d2d" d="M886.903 361.7c-6.794-13.054-11.36-30.64-5.373-47.488 13.204-36.437 178.198-95.234 228.395-87.607 3.473.405 7.173 1.894 11.836 3.638 66.891 43.26 163.078 113.195 192.443 170.6 46.224 90.523-232.253-74.136-427.301-39.144"/><path fill="#ffd110" d="m1263.516 493.924-32.567 3.17s-112.269-88.512-322.926-89.38l-6.448-2.725 2.002-15.34c47.84-4.769 208.05-10.573 359.939 104.275"/><ellipse cx="1037.507" cy="327.339" fill="#ffd110" rx="50.456" ry="39.437" transform="rotate(-75.206 1037.507 327.339)"/><ellipse cx="1037.507" cy="327.339" fill="#ffb012" rx="45.014" ry="35.184" transform="rotate(-75.206 1037.507 327.339)"/><ellipse cx="1037.507" cy="327.339" fill="#ffd110" rx="33.379" ry="26.089" transform="rotate(-75.206 1037.507 327.339)"/><ellipse cx="1066.491" cy="640.273" opacity=".45" rx="42.418" ry="25.233" style="mix-blend-mode:soft-light" transform="rotate(-72.541 1066.491 640.273)"/><ellipse cx="1063.138" cy="650.479" rx="28.054" ry="16.688" transform="rotate(-72.542 1063.142 650.483)"/><ellipse cx="1073.206" cy="643.444" fill="#fff" rx="8.804" ry="5.237" transform="rotate(-72.542 1073.205 643.444)"/><path fill="#fff" d="M1061.375 651.331c-.769 2.339-.272 4.632 1.11 5.121s3.123-1.01 3.891-3.348.272-4.632-1.11-5.122-3.123 1.01-3.891 3.349"/><ellipse cx="934.671" cy="605.483" opacity=".45" rx="36.767" ry="21.909" style="mix-blend-mode:soft-light" transform="rotate(-79.52 934.67 605.483)"/><ellipse cx="933.166" cy="614.67" rx="24.316" ry="14.49" transform="rotate(-79.52 933.166 614.67)"/><path fill="#fff" d="M936.404 606.352c-.681 4.157.79 7.782 3.284 8.095s5.068-2.803 5.75-6.96-.79-7.782-3.285-8.096-5.068 2.803-5.75 6.96"/><ellipse cx="934.043" cy="615.995" fill="#fff" rx="3.864" ry="2.303" transform="rotate(-79.521 934.043 615.995)"/><path fill="#212021" d="M1078.824 723.642s-6.987 12.208-12.76 12.881c-5.795.635-57.656-2.738-80.157-7.449-22.477-4.67-73.2-24.328-79.508-27.558-6.346-3.208-12.159-10.705-12.159-10.705s2.247-1.571 6.252-3.877a140.8 140.8 0 0 1 26.203-11.829 101 101 0 0 1 11.578-3.236s8.33 27.476 56.473 20.21Z"/><path fill="#212021" d="m1219.474 676.432-43.817 76.38c-49.692 45.289-146.63 68.842-174.779 74.929a35.55 35.55 0 0 1-17.478-.653c-18.23-5.248-48.18-17.687-62.99-24.029a26.1 26.1 0 0 1-9.524-6.812 27 27 0 0 1-3.983-5.847c-2.024-4.065-4.066-8.567-6.097-13.233-.213-.456-.417-.943-.63-1.398-3.037-7.163-6.106-14.834-9.043-22.503-.204-.487-.346-.958-.52-1.437-7.176-18.979-13.487-37.83-17.07-49.1a44.2 44.2 0 0 1-1.693-20.829l13.42-87.005-5.943 87.315 9.971 33.239 9.271-18.333 13.01 4.835 5.755 51.474 18.695 14.328 16.41-21.908 35.301 10.589 5.87 32.122 23.167-2.607 32.862-48.768 18.9-1.703-8.723 41.223 13.237-5.23 25.552-37.61 88.528-18.448Z"/><path d="m1219.475 676.44-43.81 76.38c-49.714 45.27-146.637 68.839-174.792 74.905a35.3 35.3 0 0 1-17.48-.635c-18.227-5.265-48.187-17.693-62.973-24.019a26.3 26.3 0 0 1-9.525-6.825 205 205 0 0 1-10.104-19.084l-.616-1.394c-3.462-7.563-6.46-15.168-9.039-22.497a24 24 0 0 1-.52-1.45 340.5 340.5 0 0 1-13.673-51.875l40.486 88.34c35.52-9.087 70.039 26.172 70.039 26.172 66.218-11.732 163.513-83.014 183.24-169.365s-18.773-121.143-94.181-135.682c-75.447-14.55-66.017-29.747-104.494-56.079-37.466-25.654-63.807.427-65.104 1.766 8.792-12 27.647-21.549 41.622-27.38a20.414 20.414 0 0 1 25.045 7.887c10.383 16.163 31.05 41.402 62.642 49.828 40.98 10.946 99.072-6.996 120.512-11.1 3.927-.729 28.667 3.959 32.323 5.499 42.056 17.755 69.216 65.804 69.216 65.804-94.788 66.61-38.814 130.805-38.814 130.805" opacity=".45" style="mix-blend-mode:soft-light"/><path d="M1258.289 545.636s-432.421-36.992-426.817-112.723l70.386-28.03s336.363 30.913 356.43 140.753"/><path fill="#2d2d2d" d="m905.54 413.654-51.945 24.07s63.724 58.519 284.39 78.108l70.46-14.683s-58.466-46.632-302.905-87.495"/><path fill="#b25734" d="M1082.498 721.68c-4.027 5.231-8.139 10.376-12.403 15.367l-.39.456-.914.17a214 214 0 0 1-44.851 3.182 250.3 250.3 0 0 1-44.726-5.39 208.6 208.6 0 0 1-42.939-13.915l-10.209-4.83c-3.303-1.819-6.516-3.806-9.759-5.693l-4.835-2.869-4.56-3.33q-4.564-3.298-8.99-6.71l-.272-.21-.068-.126c-1.513-2.82-2.893-5.73-4.33-8.603 2.12 2.412 4.298 4.786 6.342 7.25l-.338-.335c13.388 6.325 26.52 12.52 40.387 16.947a327 327 0 0 0 41.9 11.336 426 426 0 0 0 43.027 6.548c14.461 1.413 29.135 2.291 43.699 2.325l-1.302.626c5.047-4.197 10.247-8.24 15.531-12.196"/><path fill="#b25734" d="M1084.127 728.532c-3.953-2.173-5.639-2.712-7.166-3.778a15 15 0 0 1-2.393-2.132 34.5 34.5 0 0 1-3.476-3.904c2.997-3.417 7.521-3.354 10.926-1.061a8.4 8.4 0 0 1 3.367 4.96 6.52 6.52 0 0 1-1.258 5.915"/><path fill="#db987d" d="M963.465 650.707s34.457 10.357 31.257 24.779-39.012 12.362-54.129-1.249 22.872-23.53 22.872-23.53"/><path fill="#b25734" d="M973.184 637.417c-2.327 5.098-5.037 9.915-7.732 14.743l-.274.49-1.01.417c-4.154 1.71-8.301 3.444-12.506 4.981l-3.143 1.19a10.7 10.7 0 0 0-2.151 1.081 7.5 7.5 0 0 0-2.699 3.276 7.86 7.86 0 0 0 .752 7.859 58 58 0 0 0 8.332 8.834 46.7 46.7 0 0 0 10.155 6.413 53 53 0 0 0 11.73 3.527c8.262 1.334 17.067.84 26.082-.363a54.8 54.8 0 0 1-26.643 7.249 44.16 44.16 0 0 1-27.212-9.515 49.4 49.4 0 0 1-10.08-10.553 16.3 16.3 0 0 1-.929-17.527 16 16 0 0 1 6.393-6.32 15.6 15.6 0 0 1 4.038-1.447l3.282-.725c4.36-1.016 8.78-1.836 13.192-2.679l-1.283.906c3.784-4.032 7.553-8.075 11.706-11.837"/><path fill="#353535" d="M1040.588 724.167s-91.167 5.362-140.095-37.233a140.8 140.8 0 0 1 26.202-11.829c5.036 7.79 18.567 22.254 51.805 27.669 46.393 7.557 62.088 21.393 62.088 21.393"/></g></svg>