
<svg xmlns="http://www.w3.org/2000/svg" xmlns:xlink="http://www.w3.org/1999/xlink" viewBox="0 0 2800 1900"><defs><linearGradient id="c" x1="379.025" x2="856.89" y1="880.933" y2="880.933" gradientUnits="userSpaceOnUse"><stop offset="0" stop-color="#f4f4f4"/><stop offset="1" stop-color="#303030"/></linearGradient><linearGradient id="y" x1="2021.948" x2="2076.225" y1="1086.876" y2="1086.876" xlink:href="#c"/><linearGradient id="l" x1="379.025" x2="715.429" y1="865.926" y2="865.926" xlink:href="#c"/><linearGradient id="p" x1="1736.21" x2="1790.486" y1="1057.11" y2="1057.11" xlink:href="#c"/><linearGradient id="s" x1="1831.456" x2="1885.732" y1="1067.032" y2="1067.032" xlink:href="#c"/><linearGradient id="v" x1="1926.702" x2="1980.978" y1="1076.954" y2="1076.954" xlink:href="#c"/><linearGradient id="m" x1="379.025" x2="856.89" y1="880.933" y2="880.933" gradientUnits="userSpaceOnUse"><stop offset="0" stop-color="#cfe7e5"/><stop offset="1" stop-color="#cfe7e5"/></linearGradient><linearGradient id="B" x1="379.025" x2="715.429" y1="865.926" y2="865.926" xlink:href="#m"/><linearGradient id="D" x1="1736.21" x2="1790.486" y1="1057.11" y2="1057.11" xlink:href="#m"/><linearGradient id="F" x1="1831.456" x2="1885.732" y1="1067.032" y2="1067.032" xlink:href="#m"/><linearGradient id="H" x1="1926.702" x2="1980.978" y1="1076.954" y2="1076.954" xlink:href="#m"/><linearGradient id="J" x1="2021.948" x2="2076.225" y1="1086.876" y2="1086.876" xlink:href="#m"/><filter id="a" width="477.865" height="32766" x="379.025" y="-9142" color-interpolation-filters="sRGB" filterUnits="userSpaceOnUse"><feFlood flood-color="#fff" result="bg"/><feBlend in="SourceGraphic" in2="bg"/></filter><filter id="b" width="54.276" height="32766" x="2021.948" y="-9142" color-interpolation-filters="sRGB" filterUnits="userSpaceOnUse"><feFlood flood-color="#fff" result="bg"/><feBlend in="SourceGraphic" in2="bg"/></filter><filter id="d" width="336.404" height="32766" x="379.025" y="-9142" color-interpolation-filters="sRGB" filterUnits="userSpaceOnUse"><feFlood flood-color="#fff" result="bg"/><feBlend in="SourceGraphic" in2="bg"/></filter><filter id="e" width="54.276" height="32766" x="1736.21" y="-9142" color-interpolation-filters="sRGB" filterUnits="userSpaceOnUse"><feFlood flood-color="#fff" result="bg"/><feBlend in="SourceGraphic" in2="bg"/></filter><filter id="f" width="54.276" height="32766" x="1831.456" y="-9142" color-interpolation-filters="sRGB" filterUnits="userSpaceOnUse"><feFlood flood-color="#fff" result="bg"/><feBlend in="SourceGraphic" in2="bg"/></filter><filter id="g" width="54.276" height="32766" x="1926.702" y="-9142" color-interpolation-filters="sRGB" filterUnits="userSpaceOnUse"><feFlood flood-color="#fff" result="bg"/><feBlend in="SourceGraphic" in2="bg"/></filter><filter id="i" width="477.865" height="336.234" x="379.025" y="712.816" color-interpolation-filters="sRGB" filterUnits="userSpaceOnUse"><feFlood flood-color="#fff" result="bg"/><feBlend in="SourceGraphic" in2="bg"/></filter><filter id="k" width="336.404" height="306.221" x="379.025" y="712.816" color-interpolation-filters="sRGB" filterUnits="userSpaceOnUse"><feFlood flood-color="#fff" result="bg"/><feBlend in="SourceGraphic" in2="bg"/></filter><filter id="o" width="54.276" height="62.316" x="1736.21" y="1025.952" color-interpolation-filters="sRGB" filterUnits="userSpaceOnUse"><feFlood flood-color="#fff" result="bg"/><feBlend in="SourceGraphic" in2="bg"/></filter><filter id="r" width="54.276" height="62.316" x="1831.456" y="1035.874" color-interpolation-filters="sRGB" filterUnits="userSpaceOnUse"><feFlood flood-color="#fff" result="bg"/><feBlend in="SourceGraphic" in2="bg"/></filter><filter id="u" width="54.276" height="62.316" x="1926.702" y="1045.796" color-interpolation-filters="sRGB" filterUnits="userSpaceOnUse"><feFlood flood-color="#fff" result="bg"/><feBlend in="SourceGraphic" in2="bg"/></filter><filter id="x" width="54.276" height="62.316" x="2021.948" y="1055.718" color-interpolation-filters="sRGB" filterUnits="userSpaceOnUse"><feFlood flood-color="#fff" result="bg"/><feBlend in="SourceGraphic" in2="bg"/></filter><mask id="z" width="477.865" height="336.234" x="379.025" y="712.816" maskUnits="userSpaceOnUse"><g filter="url(#i)" mask="url(#h)"><path d="M838.77388,1049.05s-105.1378-8.0663-214.8276-30.0133c-124.38089-24.8763-254.66569-67.5984-244.34549-136.5036,79.3604-89.1849,174.584-169.7171,174.584-169.7171s79.811,18.0713,161.24459,33.754c54.03362,10.4102,108.7884,19.7388,141.461,22.0823C825.75018,906.2374,838.77388,1049.05,838.77388,1049.05Z" style="mix-blend-mode:multiply" fill="url(#c)"/></g></mask><mask id="A" width="336.404" height="306.221" x="379.025" y="712.816" maskUnits="userSpaceOnUse"><g filter="url(#k)" mask="url(#j)"><path d="M715.42938,746.57s-42.9925,204.1923-91.4831,272.4667c-124.38089-24.8763-254.66569-67.5984-244.34549-136.5036,79.3604-89.1849,174.584-169.7171,174.584-169.7171S633.99578,730.8873,715.42938,746.57Z" style="mix-blend-mode:multiply" fill="url(#l)"/></g></mask><mask id="C" width="54.276" height="62.316" x="1736.21" y="1025.952" maskUnits="userSpaceOnUse"><g filter="url(#o)" mask="url(#n)"><path d="M1769.4745,1088.1457l-20.4557-2.6429a14.57531,14.57531,0,0,1-12.2555-18.3329,92.36368,92.36368,0,0,0,3.7143-26.4149,14.6233,14.6233,0,0,1,16.4948-14.68l20.6994,2.6745a14.602,14.602,0,0,1,12.7955,14.0708c.2279,11.1504-1.6205,22.8591-5.0657,34.9972A14.57556,14.57556,0,0,1,1769.4745,1088.1457Z" style="mix-blend-mode:multiply" fill="url(#p)"/></g></mask><mask id="E" width="54.276" height="62.316" x="1831.456" y="1035.874" maskUnits="userSpaceOnUse"><g filter="url(#r)" mask="url(#q)"><path d="M1864.7207,1098.0677l-20.4558-2.643a14.57512,14.57512,0,0,1-12.2554-18.3328,92.37119,92.37119,0,0,0,3.7143-26.4149,14.62324,14.62324,0,0,1,16.4948-14.68l20.6994,2.6745a14.602,14.602,0,0,1,12.7954,14.0708c.2279,11.1503-1.6205,22.8591-5.0656,34.9972A14.57579,14.57579,0,0,1,1864.7207,1098.0677Z" style="mix-blend-mode:multiply" fill="url(#s)"/></g></mask><mask id="G" width="54.276" height="62.316" x="1926.702" y="1045.796" maskUnits="userSpaceOnUse"><g filter="url(#u)" mask="url(#t)"><path d="M1959.9668,1107.9897l-20.4557-2.643a14.57522,14.57522,0,0,1-12.2555-18.3328,92.36484,92.36484,0,0,0,3.7143-26.415,14.62317,14.62317,0,0,1,16.4948-14.6799l20.6994,2.6744a14.60215,14.60215,0,0,1,12.7955,14.0709c.2278,11.1503-1.6205,22.8591-5.0657,34.9972A14.57576,14.57576,0,0,1,1959.9668,1107.9897Z" style="mix-blend-mode:multiply" fill="url(#v)"/></g></mask><mask id="I" width="54.276" height="62.316" x="2021.948" y="1055.718" maskUnits="userSpaceOnUse"><g filter="url(#x)" mask="url(#w)"><path d="M2055.213,1117.9116l-20.4558-2.6429a14.57525,14.57525,0,0,1-12.2554-18.3329,92.3707,92.3707,0,0,0,3.7143-26.4149,14.62308,14.62308,0,0,1,16.4948-14.6799l20.6994,2.6744a14.60206,14.60206,0,0,1,12.7954,14.0709c.2279,11.1503-1.6205,22.859-5.0656,34.9971A14.57569,14.57569,0,0,1,2055.213,1117.9116Z" style="mix-blend-mode:multiply" fill="url(#y)"/></g></mask></defs><g data-name="Layer 1"><path fill="#224e6b" d="M554.16519,712.8317s81.11809-63.4837,130.49429-86.9962S915.877,556.4737,1014.8197,567.0543s388.1462,178.2769,1192.2732,397.152c162.2361-63.2747,268.0423-152.6221,333.8773-156.149,37.8807-2.0293,87.8271,7.6179,123.413,16.1763,19.0802,4.5888,25.3194,28.6207,10.8266,41.852-39.9989,36.5177-105.3262,100.5443-138.9421,157.4126-50.5519,85.5189-71.7131,106.6801-119.9137,106.6801l-34.0931-25.8637s-195.1536,17.6344-216.3148,34.0931c-11.7563,17.6344,28.2149,39.9712,28.2149,39.9712l-331.526,59.9569s-193.978-158.4541-231.0102-169.4562-206.322-28.6365-366.7947-19.8193-152.4402,54.6665-174.9726,91.6987c159.1016,116.3868,331.9184,229.2467,331.9184,229.2467s-871.13761-14.1075-1107.43811-98.7524S2.2096,1091.6004,379.585,882.5244C428.37339,848.0285,524.77459,751.1117,554.16519,712.8317Z"/><path d="M2664.344,824.225c19.0914,4.5819,25.3502,28.6179,10.8513,41.8563-40.0007,36.5231-105.3163,100.5461-138.9354,157.4169-50.5637,85.5344-71.6995,106.6699-119.9197,106.6699l-34.0696-25.8676s-195.1791,17.6659-216.3149,34.115c-11.762,17.6208,28.2111,39.9731,28.2111,39.9731l-331.5476,59.9369s-193.9622-158.4502-231.006-169.4459c-36.999-10.9963-206.3104-28.6171-366.789-19.8296-160.4785,8.8333-152.4118,54.6652-174.9446,91.709,159.0815,116.4042,331.9079,229.2486,331.9079,229.2486s-871.163-14.1055-1107.44191-98.7388c-127.26519-45.6064-207.93249-94.1867-196.44079-161.9655,151.826,209.8702,1022.8537,210.817,1022.8537,210.817s-29.3377-162.9128-475.98282-253.0886C439.22249,1021.4705,353.28229,962.2542,323.494,914.7549q26.22823-15.6153,56.10679-32.2218c48.761-34.5204,145.1561-131.4114,174.584-169.7171,0,0,9.9594-7.7963,25.0114-18.9276,56.37709,13.79,139.92859,33.2584,194.54809,41.6856,80.2618,12.348,119.1534-69.6712,134.025-164.7598,39.2974-4.9571,76.9722-6.94,107.03082-3.7402,57.3236,6.1288,178.5502,64.9845,426.7713,156.017-20.8654,34.9259-43.8036,80.307-35.6468,99.8653,14.1056,33.8894,330.2857,57.9543,330.2857,57.9543l16.1335-51.1043c129.4734,41.6406,279.9475,86.7964,454.7568,134.3857l159.893,37.4495,270.6188-183.3719C2647.0748,820.2072,2656.0949,822.2452,2664.344,824.225Z" style="mix-blend-mode:soft-light" opacity=".5"/><path fill="#6484ca" d="M1761.85,1089.0394l-21.5926-2.7899a15.38516,15.38516,0,0,1-12.9366-19.3517,97.505,97.505,0,0,0,3.9207-27.883,15.436,15.436,0,0,1,17.4116-15.4959l21.8498,2.8231a15.41356,15.41356,0,0,1,13.5066,14.8529c.2406,11.77-1.7106,24.1296-5.3472,36.9423A15.38571,15.38571,0,0,1,1761.85,1089.0394Z"/><path fill="#6484ca" d="M1862.3898,1099.5128l-21.5926-2.7899a15.38516,15.38516,0,0,1-12.9366-19.3517,97.505,97.505,0,0,0,3.9207-27.883,15.436,15.436,0,0,1,17.4116-15.4959l21.8498,2.8231a15.41364,15.41364,0,0,1,13.5066,14.8529c.2406,11.7701-1.7106,24.1296-5.3472,36.9423A15.38577,15.38577,0,0,1,1862.3898,1099.5128Z"/><path fill="#6484ca" d="M1962.9296,1109.9862l-21.5926-2.7898a15.38529,15.38529,0,0,1-12.9366-19.3518,97.505,97.505,0,0,0,3.9207-27.883,15.436,15.436,0,0,1,17.4116-15.4959l21.8498,2.8231a15.41372,15.41372,0,0,1,13.5066,14.8529c.2405,11.7701-1.7106,24.1296-5.3472,36.9423A15.38584,15.38584,0,0,1,1962.9296,1109.9862Z"/><path fill="#6484ca" d="M2063.4694,1120.4596l-21.5926-2.7898a15.38525,15.38525,0,0,1-12.9366-19.3518,97.504,97.504,0,0,0,3.9207-27.883,15.43584,15.43584,0,0,1,17.4116-15.4958l21.8498,2.8231a15.41354,15.41354,0,0,1,13.5066,14.8528c.2405,11.7701-1.7106,24.1296-5.3472,36.9423A15.38574,15.38574,0,0,1,2063.4694,1120.4596Z"/><path fill="#cc805e" d="M1316.2348,900.5052l67.9211-28.9642s323.2967,32.0647,373.8485,28.9642c3.5269-45.4229,19.3978-53.6523,44.0859-93.0357s18.81-83.4693,42.3225-51.1397,15.2831,68.774-9.9928,89.9353c95.2256-26.4516,156.358-34.6809,146.953-11.7563s-112.8599,57.6056-112.8599,57.6056,136.3724-20.5734,129.9065,1.7635-114.0356,42.3224-114.0356,42.3224,114.6234-4.7025,119.3259,18.81-122.8527,17.0466-122.8527,17.0466,71.713,34.6809,71.713,52.9031-94.0499-21.7491-94.0499-21.7491-42.3225,25.2759-95.8134-22.3368c-129.9065,34.0931-412.6267,60.8976-412.6267,60.8976Z"/><path d="M1880.871,972.0785s38.5761,18.6569,59.126,35.7821c-21.1808-9.6893-49.1667-20.6402-53.8534-13.4749-4.5066,6.9854,22.3975,22.3527,45.0205,33.6642-27.7603-5.7686-72.6457-24.8312-72.6457-24.8312s-42.3167,25.2817-95.8095-22.3527c-129.9242,34.1147-412.6206,60.884-412.6206,60.884L1316.244,900.5143l67.9139-28.9772s4.7318.4506,13.1142,1.3068c17.8458,29.7432,45.6064,65.4354,81.7939,81.839,66.1563,30.0139,266.9234.9465,278.9561-54.1686.3155-3.8308.6759-7.3908,1.1718-10.7257,5.0922-36.3228,20.2795-46.2824,42.9023-82.3349,22.4876-35.8723,19.6037-75.665,36.7285-57.9543-5.0022,8.1569-9.6892,20.0994-13.2042,37.4044-11.1764,55.0252-5.8136,61.6046,9.3287,58.9008-.1805.135-.3607.3155-.5408.4505,3.5601-.9913,7.075-1.9378,10.5452-2.884.1801-.0451.4057-.1353.631-.1804.7209-.1802,1.532-.4054,2.4785-.6758,46.598-12.4833,83.9572-20.1445,107.3012-21.2711-23.9749,3.6954-50.6086,11.4916-63.9481,27.9407-22.5779,27.8505,27.8054,13.3843,71.0685,2.2984-31.4108,19.3781-90.0861,39.3422-93.7815,40.6041,3.8756-.5407,75.1694-11.0862,110.4559-8.0669-29.1576,2.2984-69.1308,8.4724-78.9099,25.1467-7.9767,13.6099,20.9105,13.6998,51.555,10.4552-31.5459,9.9145-67.4182,16.5842-67.4182,16.5842s45.0205-1.8476,79.8112,2.5687c-28.7067-.0902-59.4866,2.3435-67.4633,12.7086-9.9145,12.8887,36.0976,17.4854,71.8797,19.0626C1932.2456,974.6921,1880.871,972.0785,1880.871,972.0785Z" style="mix-blend-mode:soft-light" opacity=".5"/><path fill="#e5e1e1" d="M1384.1579,871.5371s-15.2773,109.2841-35.5569,175.17c-21.1806,64.9397-258.7214,94.0519-258.7214,94.0519s-49.9328-5.2278-121.36172-30.6449c-16.40388-5.8587-33.9345-12.7533-52.2311-20.9099-18.2064-8.0669-37.2242-17.3958-56.6475-28.166-6.8949-3.7859-13.88-7.7968-20.8654-11.9882,0,0-13.0237-142.8126,18.1165-280.3977l78.955,12.8436,26.0478,4.2813h.0902l11.3115,1.8478,8.6525,1.397,1.3068.2253,86.79642,19.9189,41.5957,9.5539,45.6064,10.5004,13.3843,2.4785Z"/><path fill="#6484ca" d="M2592.6819,1292.4043c-15.3673,5.7234-85.2189,7.4364-135.8275,7.6614a209.41045,209.41045,0,0,1-105.1381-27.8959c-62.1905-35.7367-157.5495-93.7812-157.5495-93.7812l-.0899-.0451c-2.028-1.1717-39.5677-22.8029-28.1212-39.928,21.1358-16.4491,216.3149-34.115,216.3149-34.115l34.0696,25.8676C2450.4549,1156.0363,2616.5218,1283.6167,2592.6819,1292.4043Z"/><path fill="#6484ca" d="M2315.844,1645.0877c-37.4947,13.7903-80.6225,22.2175-125.6881,26.3187-138.1258,12.4832-276.6574-19.2882-397.4332-87.4725-145.7423-82.2447-370.9352-213.9263-370.9352-213.9263s-172.8264-112.8444-331.9079-229.2486c22.5328-37.0438,14.4661-82.8757,174.9446-91.709,160.4786-8.7875,329.79,8.8333,366.789,19.8296,31.8163,9.4631,179.5412,127.8054,220.4608,160.8839.09.0902.1802.1805.2704.1805q4.39365,3.7173,8.7879,7.1652c.4956.4506.9913.8115,1.4869,1.2163C2000.0245,1346.1232,2435.7634,1601.0139,2315.844,1645.0877Z"/><path d="M2592.6819,1292.4043c-12.1675,4.5516-58.6301,6.5348-102.5691,7.3011-45.8319-41.7308-118.3423-97.3421-139.6134-113.4754l-34.0696-25.8676s-67.7785,6.1288-127.8059,14.5561c-10.5455-6.9397-31.6362-23.0736-22.6682-36.503,21.1358-16.4491,216.3149-34.115,216.3149-34.115l34.0696,25.8676C2450.4549,1156.0363,2616.5218,1283.6167,2592.6819,1292.4043Z" style="mix-blend-mode:soft-light" opacity=".5"/><path d="M2315.844,1645.0877c-37.4947,13.7903-80.6225,22.2175-125.6881,26.3187q-23.79435,2.1636-47.5892,2.5239c-77.2874-95.1791-349.6638-259.6234-453.0894-340.7415-.4957-.4054-.9913-.7657-1.4873-1.2168q-4.39365-3.4476-8.7875-7.1653c-.0903,0-.1805-.0897-.2704-.1799-40.9197-33.0785-188.6448-151.4208-220.4611-160.8845-36.8185-10.9512-204.6428-28.4361-364.4004-19.9192-1.397-1.0364-2.794-2.0277-4.191-3.0641,22.5328-37.0438,14.4661-82.8757,174.9446-91.709,160.4786-8.7875,329.79,8.8333,366.789,19.8296,31.8163,9.4631,179.5412,127.8054,220.4608,160.8839.09.0902.1802.1805.2704.1805q4.39365,3.7173,8.7879,7.1652c.4956.4506.9913.8115,1.4869,1.2163C2000.0245,1346.1232,2435.7634,1601.0139,2315.844,1645.0877Z" style="mix-blend-mode:soft-light" opacity=".5"/><g mask="url(#z)"><path fill="url(#m)" d="M838.77388,1049.05s-105.1378-8.0663-214.8276-30.0133c-124.38089-24.8763-254.66569-67.5984-244.34549-136.5036,79.3604-89.1849,174.584-169.7171,174.584-169.7171s79.811,18.0713,161.24459,33.754c54.03362,10.4102,108.7884,19.7388,141.461,22.0823C825.75018,906.2374,838.77388,1049.05,838.77388,1049.05Z"/></g><path fill="#2d2d2d" d="M1298.9189,856.513l-5.8113,26.6694a9.0737,9.0737,0,0,1-10.1173,7.0551l-27.0659-3.7695-15.4299-2.2659-20.5176-2.8912-42.6225-5.7613a9.0736,9.0736,0,0,1-7.802-10.0004l3.5923-32.1192a9.07376,9.07376,0,0,1,10.6887-7.91l40.034,7.5021,21.205,3.982,14.926,2.7072,31.7278,5.9517A9.07362,9.07362,0,0,1,1298.9189,856.513Z"/><polygon fill="#ffd110" points="1245.01 836.977 1240.515 884.22 1219.945 881.412 1223.84 833.028 1245.01 836.977"/><path fill="#ffd110" d="M1298.8976,856.45l-5.8072,26.684a9.07388,9.07388,0,0,1-10.1038,7.0594l-26.993-3.7163,3.9569-46.8424,31.7568,5.9682A9.07369,9.07369,0,0,1,1298.8976,856.45Z"/><path fill="#2d2d2d" d="M913.05128,772.9127,872.459,769.5556l-21.503-1.77-6.93422-.6142c-.1846,4.3146-.48578,8.6184-.82578,12.9195q-.59748,10.4739-1.92182,20.8753-.31065,3.1266-.6167,6.2548c-.2206,2.2957-.2984,4.6309-.3389,6.9777l2.5652.3144,20.5513,2.64,42.628,5.7204a9.07353,9.07353,0,0,0,10.1698-7.5798l5.0333-31.9252A9.07338,9.07338,0,0,0,913.05128,772.9127Z"/><polygon fill="#ffd110" points="851.023 767.776 842.859 814.525 863.439 817.259 872.484 769.568 851.023 767.776"/><g mask="url(#A)"><path fill="url(#B)" d="M715.42938,746.57s-42.9925,204.1923-91.4831,272.4667c-124.38089-24.8763-254.66569-67.5984-244.34549-136.5036,79.3604-89.1849,174.584-169.7171,174.584-169.7171S633.99578,730.8873,715.42938,746.57Z"/></g><path fill="#6484ca" d="M856.89038,768.6523c-32.6726-2.3435-87.42738-11.6721-141.461-22.0823-81.4336-15.6827-161.24459-33.754-161.24459-33.754s-95.2236,80.5322-174.584,169.7171c-10.3202,68.9052,119.9646,111.6273,244.34549,136.5036,109.6898,21.947,214.8276,30.0133,214.8276,30.0133S825.75018,906.2374,856.89038,768.6523Zm-47.995,257.6399s-90.8972-6.9848-185.7603-25.9578c-107.57149-21.4961-220.19039-58.4499-211.26749-118.0268,68.59-77.1072,150.9246-146.7336,150.9246-146.7336s69.04059,15.5928,139.433,29.1576c46.733,9.0131,94.097,17.0798,122.3532,19.1078C797.629,902.8127,808.89538,1026.2922,808.89538,1026.2922Z"/><path fill="#6484ca" d="M697.00348,751.9212S661.73478,918.566,614.122,1006.7378c16.75268,4.4086,24.59978,6.5046,24.59978,6.5046s66.9185-133.472,76.7076-249.8588C715.42938,746.57,697.00348,751.9212,697.00348,751.9212Z"/><path fill="#2d2d2d" d="M996.68387,955.3139s-12.43809,74.3131-28.166,154.8002c-16.40388-5.8587-33.9345-12.7533-52.2311-20.9099-18.2064-8.0669-37.2242-17.3958-56.6475-28.166,36.8188-64.3992,72.4656-122.6239,72.4656-122.6239l12.43812-.9462,24.33528-1.8929Z"/><path fill="#424242" d="M912.493,877.3155c-.58282,2.862.12928,7.5918,1.57168,13.1496l-.0104.0398c4.7879,18.9599,18.0515,47.9105,18.0515,47.9105s20.4924,9.2328,64.57929,16.9195c17.47913-7.3517,53.99523-33.7475,53.99523-33.7475s36.8064-29.4195-26.9208-52.782C960.07368,845.4964,915.07308,864.7017,912.493,877.3155Z"/><path d="M1050.6724,921.6049s-1.1717.8563-3.1997,2.2984c-9.2384,6.5343-36.4128,25.372-50.78883,31.4106,0,0-12.43809,74.3131-28.166,154.8002-16.40388-5.8587-33.9345-12.7533-52.2311-20.9099,9.5088-62.4163,13.2944-119.6494,15.8181-150.7899,4.3715-.1801,8.5625-.4956,12.43812-.9462,42.72208-4.8671,59.2611-24.02,47.54417-36.5033-12.52809-13.3843-75.93549-10.5452-78.00859-10.4552v-.0451c-1.4421-5.543-2.163-10.2748-1.5772-13.1591.5408-2.7038,3.10962-5.7234,7.3458-8.5623,11.0859-7.4359,33.9342-13.5648,64.3535-9.7343,3.9207.4956,7.97669,1.1266,12.12259,1.9829,3.5601.7209,7.21043,1.5323,10.95093,2.5236v.0451c5.3178,1.3971,10.861,3.1547,16.4942,5.2275,1.487.5408,2.9291,1.0818,4.3261,1.6674h.0903C1085.7336,893.574,1050.6724,921.6049,1050.6724,921.6049Z" style="mix-blend-mode:soft-light" opacity=".3"/><path fill="#f4f4f4" d="M889.89288,905.2768a4.75074,4.75074,0,0,1,.1778.8109c18.8815-18.0235,70.8921-36.751,107.99579-38.1543a.51809.51809,0,0,1,.167.0013c48.975,37.7548,76.75013,107.914,76.75013,107.914s.3336-.2098,1.0011-.6292c5.4747-3.4485,32.7116-21.2362,47.6581-43.3904,16.6242-24.7291,49.3155-102.2717,49.25-107.5538s-61.6858-67.1126-61.6858-67.1126-57.5483,2.628-108.627,9.4988c-7.11353.981-14.123,1.9895-20.82952,3.1196-54.7492,9.1784-68.9068,24.2786-68.9068,24.2786S878.83658,849.6032,889.89288,905.2768Z"/><path d="M950.14308,830.8454s38.8388,34.2869,48.09039,37.0893c23.83783,3.6976,101.42653,4.7916,101.42653,4.7916s-3.0573,36.5632-9.1785,59.0763c-6.1631,22.4599-14.4968,43.4169-14.4968,43.4169,5.4747-3.4485,32.7116-21.2362,47.6581-43.3904,16.6242-24.7291,49.3155-102.2717,49.25-107.5538s-61.6858-67.1126-61.6858-67.1126-57.5483,2.628-108.627,9.4988l-49.75942,53.964A33.716,33.716,0,0,0,950.14308,830.8454Z" style="mix-blend-mode:soft-light"/><path d="M889.89288,905.2768a4.75074,4.75074,0,0,1,.1778.8109c18.8815-18.0235,70.8921-36.751,107.99579-38.1543-3.1089-.4748-53.18329-7.6499-80.19539,1.4075C901.95818,879.2259,893.91328,893.7624,889.89288,905.2768Z" style="mix-blend-mode:soft-light"/><path fill="#cc805e" d="M1133.4197,735.5629l-25.7977,98.4664s-71.7247,24.6831-106.7571,30.7347c-25.72712-21.1396-48.05372-44.1574-48.05372-44.1574l21.3171-81.3644Z"/><path d="M1065.6442,817.2366c-27.7636,27.033-48.8624,34.5827-70.76073,28.803-20.42779-5.4368-39.33859-22.8322-41.80169-25.1332,2.5569,2.5804,23.64022,24.0263,47.768,43.85,35.0356-6.0638,106.7794-30.7456,106.7794-30.7456l25.7951-98.4561-159.28482,3.6996-21.3189,81.3712s17.5779-36.665,27.2576-37.441C980.07818,783.1845,1093.4709,790.1773,1065.6442,817.2366Z" style="mix-blend-mode:soft-light" opacity=".5"/><path d="M1759.1939,889.7886a53.9107,53.9107,0,0,1-1.1718,10.7257C1758.3376,896.6835,1758.698,893.1235,1759.1939,889.7886Z"/><g mask="url(#C)"><path fill="url(#D)" d="M1769.4745,1088.1457l-20.4557-2.6429a14.57531,14.57531,0,0,1-12.2555-18.3329,92.36368,92.36368,0,0,0,3.7143-26.4149,14.6233,14.6233,0,0,1,16.4948-14.68l20.6994,2.6745a14.602,14.602,0,0,1,12.7955,14.0708c.2279,11.1504-1.6205,22.8591-5.0657,34.9972A14.57556,14.57556,0,0,1,1769.4745,1088.1457Z"/></g><g mask="url(#E)"><path fill="url(#F)" d="M1864.7207,1098.0677l-20.4558-2.643a14.57512,14.57512,0,0,1-12.2554-18.3328,92.37119,92.37119,0,0,0,3.7143-26.4149,14.62324,14.62324,0,0,1,16.4948-14.68l20.6994,2.6745a14.602,14.602,0,0,1,12.7954,14.0708c.2279,11.1503-1.6205,22.8591-5.0656,34.9972A14.57579,14.57579,0,0,1,1864.7207,1098.0677Z"/></g><g mask="url(#G)"><path fill="url(#H)" d="M1959.9668,1107.9897l-20.4557-2.643a14.57522,14.57522,0,0,1-12.2555-18.3328,92.36484,92.36484,0,0,0,3.7143-26.415,14.62317,14.62317,0,0,1,16.4948-14.6799l20.6994,2.6744a14.60215,14.60215,0,0,1,12.7955,14.0709c.2278,11.1503-1.6205,22.8591-5.0657,34.9972A14.57576,14.57576,0,0,1,1959.9668,1107.9897Z"/></g><g mask="url(#I)"><path fill="url(#J)" d="M2055.213,1117.9116l-20.4558-2.6429a14.57525,14.57525,0,0,1-12.2554-18.3329,92.3707,92.3707,0,0,0,3.7143-26.4149,14.62308,14.62308,0,0,1,16.4948-14.6799l20.6994,2.6744a14.60206,14.60206,0,0,1,12.7954,14.0709c.2279,11.1503-1.6205,22.859-5.0656,34.9971A14.57569,14.57569,0,0,1,2055.213,1117.9116Z"/></g><path fill="#cc805e" d="M1162.6503,750.0433c8.6635,12.918,23.5607,15.3331,39.3633,11.106,30.9653-8.2179,65.3689-41.8151,63.0318-71.3403-.9366-11.5732-5.2733-18.356-11.2306-22.0556-16.9815-10.5397-46.9669,4.068-46.9669,4.068S1137.019,711.8061,1162.6503,750.0433Z"/><path d="M1162.6503,750.0433c8.6635,12.918,23.5607,15.3331,39.3633,11.106-12.7453-4.1196-16.7968-11.9757-5.4741-18.2888,14.8345-8.2594,50.5061-20.6396,54.5757-36.7488,4.0996-16.1218-24.3567-9.5134-24.3567-9.5134,6.7787-18.5788,18.0458-25.9792,27.0563-28.8449-16.9815-10.5397-46.9669,4.068-46.9669,4.068S1137.019,711.8061,1162.6503,750.0433Z" style="mix-blend-mode:soft-light" opacity=".45"/><path fill="#914027" d="M1184.4673,720.7964a56.20053,56.20053,0,0,1,12.3273-15.7804,58.81767,58.81767,0,0,1,16.9748-11.2577c6.3507-2.7072,13.4484-4.3924,20.5853-3.721a30.07676,30.07676,0,0,1,18.4619,8.743,54.57136,54.57136,0,0,0-18.4813-1.9101,63.85364,63.85364,0,0,0-17.0775,4.9166C1206.0835,706.55,1195.7839,713.7525,1184.4673,720.7964Z"/><path fill="#212021" d="M1328.4855,570.1058a182.80244,182.80244,0,0,1-18.4991,35.5648,201.58549,201.58549,0,0,1-12.2646,16.6257c-2.4135,3.0006-4.9518,6.0142-7.701,9.0624-4.8054,5.3555-10.0715,10.7715-15.8584,16.1533a332.11815,332.11815,0,0,1-41.1685,32.7707l-46.948,46.73L877.08678,607.2934,887.55,430.6159s9.77628-31.9723,48.69-63.0077c15.91128-12.7277,36.699-25.2677,63.66367-35.4209,48.24883-18.153,116.25493-28.63,211.59753-18.6945l-26.8548,42.0837s44.1719,16.344,87.3425,50.3903a276.66,276.66,0,0,1,22.0381,19.1965c14.6552,14.1849,28.2437,30.6124,38.717,49.3564,0,0,4.1524,10.2291,5.7334,27.2847a141.87939,141.87939,0,0,1,.24,22.733A155.73582,155.73582,0,0,1,1328.4855,570.1058Z"/><path fill="#353535" d="M1055.7273,479.7567c-2.2044-91.7363,125.1794-123.2622,128.833-124.1586-175.3907,26.6056-154.981,118.3572-154.981,118.3572-118.802-160.1198,181.9219-160.4625,181.9219-160.4625l-26.8548,42.0837s44.1719,16.344,87.3425,50.3903C1122.8198,389.1289,1055.7273,479.7567,1055.7273,479.7567Z"/><path fill="#353535" d="M1089.5205,476.9304c61.8297-62.3279,164.5262-56.7761,204.5065-51.7671,14.6552,14.1849,28.2437,30.6124,38.717,49.3564,0,0,4.1524,10.2291,5.7334,27.2847-19.6583-7.5724-44.6807-19.5459-90.281-34.2153C1169.3282,442.2057,1091.7667,475.9656,1089.5205,476.9304Z"/><path fill="#353535" d="M1338.7174,524.5374a155.73582,155.73582,0,0,1-10.2319,45.5684c-70.4323-23.471-90.4678-77.3399-90.4678-77.3399C1269.7651,511.4339,1307.001,520.3862,1338.7174,524.5374Z"/><path fill="#353535" d="M1224.9592,567.0119l-5.61,7.3313c9.1549,26.7025,42.852,45.5592,70.6716,57.0155-4.8054,5.3555-10.0715,10.7715-15.8584,16.1533-58.9277-22.3816-80.7865-72.0625-80.7865-72.0625s-.621-105.2853,42.3637-36.326a178.81059,178.81059,0,0,0,74.2468,66.5471,201.58549,201.58549,0,0,1-12.2646,16.6257C1247.315,597.4155,1224.9592,567.0119,1224.9592,567.0119Z"/><path fill="#cc805e" d="M924.75968,697.2631c-13.3138,8.0419-27.8346,3.9302-40.36668-6.5835-24.58432-20.5425-41.551-65.537-26.94652-91.3035,5.7433-10.0911,12.5416-14.4035,19.5046-15.2364,19.8455-2.3691,40.8395,23.5493,40.8395,23.5493S964.15708,673.4537,924.75968,697.2631Z"/><path d="M924.75968,697.2631c-13.3138,8.0419-27.8346,3.9302-40.36668-6.5835,13.29158,1.6572,20.28548-3.7483,12.69508-14.2576-9.9495-13.7582-37.0382-40.0628-33.9132-56.3816,3.1033-16.3429,26.0948,1.6801,26.0948,1.6801,1.7146-19.7023-5.3655-31.1734-12.3186-37.5808,19.8455-2.3691,40.8395,23.5493,40.8395,23.5493S964.15708,673.4537,924.75968,697.2631Z" style="mix-blend-mode:soft-light" opacity=".45"/><path fill="#914027" d="M917.35888,661.5336c-7.2758-11.1688-13.563-22.0514-21.6744-31.0933a63.85168,63.85168,0,0,0-13.3956-11.6778,54.56141,54.56141,0,0,0-17.5551-6.085,30.073,30.073,0,0,1,20.4271-.1147c6.7513,2.4097,12.4703,6.9385,17.08012,12.0775a58.812,58.812,0,0,1,10.621,17.3803A56.1974,56.1974,0,0,1,917.35888,661.5336Z"/><path fill="#cc805e" d="M1219.4743,676.4321l-43.8171,76.3801c-49.6927,45.2887-146.6295,68.8421-174.779,74.9286a35.55315,35.55315,0,0,1-17.47792-.6529c-18.2294-5.2474-48.1802-17.6866-62.99-24.0289a26.0794,26.0794,0,0,1-9.524-6.8115,27.11641,27.11641,0,0,1-3.9837-5.8477c-2.0237-4.0645-4.0651-8.5667-6.0964-13.2326-.2128-.4558-.4171-.9428-.6297-1.3985-3.0372-7.1629-6.10648-14.834-9.0431-22.503-.2045-.487-.3468-.9575-.5199-1.4362-7.1764-18.9795-13.4872-37.8305-17.0714-49.1008a44.20536,44.20536,0,0,1-1.6925-20.8282l13.4205-87.0053,21.5842-139.732s.0082-.0311.087-.077c8.7966-11.9969,27.6356-21.5413,41.5989-27.3781a20.4539,20.4539,0,0,1,25.0595,7.8836c10.38432,16.1636,31.05942,41.4057,62.63282,49.8441,40.9979,10.961,99.092-6.9988,120.5221-11.0967,3.9224-.7292,28.6653,3.9405,32.3153,5.5039,42.072,17.7385,69.2085,65.801,69.2085,65.801C1163.4899,612.2589,1219.4743,676.4321,1219.4743,676.4321Z"/><path fill="#b25734" d="M1002.5108,752.8068c-4.37623,2.8567-9.5478,3.9862-14.60012,4.4167a50.976,50.976,0,0,1-15.1692-1.0909,55.018,55.018,0,0,1-14.1514-5.2722,44.00091,44.00091,0,0,1-12.0434-9.1275,128.7115,128.7115,0,0,1,14.4495,2.7647l13.6382,3.1284C983.70518,749.635,992.472,751.3921,1002.5108,752.8068Z"/><path fill="#353535" d="M995.65607,447.6915C961.80968,419.6159,944.49,391.7931,936.24,367.6082c15.91128-12.7277,36.699-25.2677,63.66367-35.4209C947.83018,380.2187,993.51607,444.6967,995.65607,447.6915Z"/><path fill="#212021" d="M1048.1256,569.4521c-1.2118,16.7111,6.1321,22.5961,6.1321,22.5961a189.45993,189.45993,0,0,1,32.0241-5.2039c.9122-.0711,1.8205-.1198,2.7102-.1944.6493-.0182,1.2799-.0623,1.9071-.0837a136.14133,136.14133,0,0,1,23.9946,1.0332c1.4948.2011,2.8924.4338,4.2419.6823,1.44.2622,2.8082.5368,4.0604.8169,9.2843,2.0393,14.0146,4.5513,14.0146,4.5513a72.609,72.609,0,0,0-10.1674-13.1025c-1.1874-1.1717-2.3821-2.2983-3.6124-3.3378-1.189-1.0104-2.3848-1.9753-3.5941-2.8499a58.35233,58.35233,0,0,0-20.7668-9.6081c-1.0226-.2689-2.052-.4925-3.0627-.6904-1.0328-.2011-2.0463-.3761-3.0633-.5286C1069.364,560.0426,1048.1256,569.4521,1048.1256,569.4521Z"/><path fill="#353535" d="M1123.4308,577.2096a51.15854,51.15854,0,0,0-4.2952,11.0721c1.44.2622,2.8082.5368,4.0604.8169a44.66273,44.66273,0,0,1,3.8472-8.5512C1125.8558,579.3757,1124.6611,578.2491,1123.4308,577.2096Z"/><path fill="#353535" d="M1099.0699,564.7516c-5.1019,6.7454-7.2439,15.483-8.1708,21.8146a136.14133,136.14133,0,0,1,23.9946,1.0332,58.62559,58.62559,0,0,1,4.943-13.2397A58.35233,58.35233,0,0,0,1099.0699,564.7516Z"/><path fill="#353535" d="M1086.2818,586.8443c.9122-.0711,1.8205-.1198,2.7102-.1944a61.745,61.745,0,0,1,7.0152-22.5887c-1.0328-.2011-2.0463-.3761-3.0633-.5286A62.4871,62.4871,0,0,0,1086.2818,586.8443Z"/><path fill="#212021" d="M992.55767,553.006c-5.68279,15.7619-14.78429,18.1552-14.78429,18.1552a189.45593,189.45593,0,0,0-27.147-17.7669c-.8047-.4357-1.6148-.8492-2.39738-1.2789-.58592-.2804-1.14422-.5769-1.70862-.8514a136.15028,136.15028,0,0,0-22.34438-8.8053c-1.44762-.4237-2.81922-.7789-4.15322-1.1002-1.4223-.3455-2.784-.6505-4.0421-.9033-9.3119-1.909-14.6548-1.5358-14.6548-1.5358a72.61976,72.61976,0,0,1,14.614-7.8409c1.56112-.5882,3.1105-1.1322,4.657-1.5821,1.497-.4401,2.9817-.8359,4.44212-1.1437a58.35349,58.35349,0,0,1,22.87918-.3413c1.0436.1698,2.0751.3837,3.079.6136,1.0254.2359,2.0226.4878,3.0137.7617C976.97468,535.7787,992.55767,553.006,992.55767,553.006Z"/><path fill="#353535" d="M920.59688,529.4964a51.163,51.163,0,0,1-.5741,11.8621c-1.4223-.3455-2.784-.6505-4.0421-.9033a44.65283,44.65283,0,0,0-.0408-9.3767C917.501,530.4903,919.05038,529.9463,920.59688,529.4964Z"/><path fill="#353535" d="M947.91818,528.0114c1.921,8.2365.3279,17.0907-1.3978,23.2526a136.15028,136.15028,0,0,0-22.34438-8.8053,58.63125,58.63125,0,0,0,.863-14.106A58.35349,58.35349,0,0,1,947.91818,528.0114Z"/><path fill="#353535" d="M950.62638,553.3943c-.8047-.4357-1.6148-.8492-2.39738-1.2789a61.74666,61.74666,0,0,0,2.76818-23.4904c1.0254.2359,2.0226.4878,3.0137.7617A62.48626,62.48626,0,0,1,950.62638,553.3943Z"/><path fill="#ffb012" d="M1350.4263,548.6122l-32.0307,43.7517c-22.6007-24.9107-60.3589-46.6546-60.3589-46.6546l-20.7241-12.6401L1075.436,483.1535,908.02258,407.7132l-6.4473-2.7244,2.0016-15.339.1593-2.5197s-35.2893-36.9595-22.2059-72.9186c13.2033-36.4367,178.198-95.2338,228.39472-87.6065,50.0709,8.1033,282.2303,162.0643,298.7471,229.3877C1424.7049,523.1852,1350.4263,548.6122,1350.4263,548.6122Z"/><path d="M1350.4263,548.6122C1113.0478,334.9198,903.73618,387.1301,903.73618,387.1301a109.65361,109.65361,0,0,1-16.8336-25.4308c-6.7935-13.0537-11.3591-30.6395-5.3723-47.4878,13.2033-36.4367,178.198-95.2338,228.39472-87.6065,3.4733.405,7.1726,1.8943,11.8357,3.6382,67.2574,24.4142,271.7723,162.8857,286.9114,225.7495C1424.7049,523.1852,1350.4263,548.6122,1350.4263,548.6122Z"/><path fill="#2d2d2d" d="M886.90258,361.6993c-6.7935-13.0537-11.3591-30.6395-5.3723-47.4878,13.2033-36.4367,178.198-95.2338,228.39472-87.6065,3.4733.405,7.1726,1.8943,11.8357,3.6382,66.8917,43.2594,163.0785,113.1944,192.4434,170.599C1360.4277,491.3665,1081.9507,326.7069,886.90258,361.6993Z"/><path fill="#ffd110" d="M1263.5156,493.9236l-32.5665,3.171s-112.2686-88.5128-322.92652-89.3814l-6.4473-2.7244,2.0016-15.339C951.41788,384.88,1111.627,379.0764,1263.5156,493.9236Z"/><ellipse cx="1037.507" cy="327.339" fill="#ffd110" rx="50.456" ry="39.437" transform="rotate(-75.206 1037.507 327.339)"/><ellipse cx="1037.507" cy="327.339" fill="#ffb012" rx="45.014" ry="35.184" transform="rotate(-75.206 1037.507 327.339)"/><ellipse cx="1037.507" cy="327.339" fill="#ffd110" rx="33.379" ry="26.089" transform="rotate(-75.206 1037.507 327.339)"/><ellipse cx="1066.491" cy="640.273" rx="42.418" ry="25.233" transform="rotate(-72.541 1066.491 640.273)" style="mix-blend-mode:soft-light" opacity=".45"/><ellipse cx="1063.138" cy="650.479" rx="28.054" ry="16.688" transform="rotate(-72.542 1063.142 650.483)"/><ellipse cx="1073.206" cy="643.444" fill="#fff" rx="8.804" ry="5.237" transform="rotate(-72.542 1073.205 643.444)"/><path fill="#fff" d="M1061.3748,651.331c-.7684,2.3387-.2717,4.6315,1.1093,5.121s3.1235-1.0097,3.8919-3.3484.2716-4.6316-1.1094-5.1211S1062.1431,648.9922,1061.3748,651.331Z"/><ellipse cx="934.671" cy="605.483" rx="36.767" ry="21.909" transform="rotate(-79.52 934.67 605.483)" style="mix-blend-mode:soft-light" opacity=".45"/><ellipse cx="933.166" cy="614.67" rx="24.316" ry="14.49" transform="rotate(-79.52 933.166 614.67)"/><path fill="#fff" d="M936.40368,606.3517c-.6808,4.1576.7895,7.7821,3.2841,8.0955s5.0687-2.8029,5.7496-6.9604-.7895-7.7821-3.284-8.0955S937.08458,602.1942,936.40368,606.3517Z"/><ellipse cx="934.043" cy="615.995" fill="#fff" rx="3.864" ry="2.303" transform="rotate(-79.521 934.043 615.995)"/><path fill="#212021" d="M1078.8243,723.6416s-6.9873,12.2085-12.7601,12.8817c-5.7956.6342-57.6561-2.7386-80.15682-7.4489-22.4778-4.6709-73.2013-24.328-79.5082-27.5588-6.34618-3.2081-12.1591-10.7044-12.1591-10.7044s2.2466-1.5714,6.2524-3.877a140.77826,140.77826,0,0,1,26.2028-11.8292,100.87635,100.87635,0,0,1,11.5781-3.2364s8.3292,27.4765,56.47219,20.2096Z"/><path fill="#212021" d="M1219.4743,676.4321l-43.8171,76.3801c-49.6927,45.2887-146.6295,68.8421-174.779,74.9286a35.55315,35.55315,0,0,1-17.47792-.6529c-18.2294-5.2474-48.1802-17.6866-62.99-24.0289a26.0794,26.0794,0,0,1-9.524-6.8115,27.11641,27.11641,0,0,1-3.9837-5.8477c-2.0237-4.0645-4.0651-8.5667-6.0964-13.2326-.2128-.4558-.4171-.9428-.6297-1.3985-3.0372-7.1629-6.10648-14.834-9.0431-22.503-.2045-.487-.3468-.9575-.5199-1.4362-7.1764-18.9795-13.4872-37.8305-17.0714-49.1008a44.20536,44.20536,0,0,1-1.6925-20.8282l13.4205-87.0053-5.9428,87.3151,9.9711,33.2385,9.2709-18.3323,13.0099,4.8346,5.7546,51.4737,18.695,14.3287,16.4095-21.9087L987.74,756.4336l5.86987,32.122,23.16763-2.6066,32.8614-48.7682,18.8994-1.7025-8.7225,41.2229,13.2368-5.2294,25.552-37.6107,88.5283-18.4476Z"/><path d="M1219.475,676.4407l-43.8109,76.3786c-49.7133,45.271-146.6365,68.8394-174.7915,74.9057a35.29375,35.29375,0,0,1-17.47972-.6354c-18.2266-5.265-48.1872-17.6923-62.9733-24.0186a26.32454,26.32454,0,0,1-9.5247-6.8249,205.13253,205.13253,0,0,1-10.1036-19.0845q-.30855-.6969-.6167-1.394c-3.4612-7.5626-6.4598-15.1671-9.0384-22.4966-.1955-.5033-.3628-.9577-.5197-1.4506a340.45564,340.45564,0,0,1-13.6738-51.8746l40.4868,88.3407c35.5192-9.0874,70.0383,26.1718,70.0383,26.1718,66.21812-11.7323,163.51282-83.0145,183.24022-169.3652s-18.7726-121.1427-94.1814-135.6821c-75.4469-14.5494-66.0161-29.747-104.49312-56.0787-37.4661-25.6542-63.8071.4264-65.1048,1.7662,8.792-12.001,27.6477-21.5493,41.6226-27.3799a20.41384,20.41384,0,0,1,25.0449,7.8867c10.38282,16.1623,31.04972,41.4019,62.64162,49.8273,40.981,10.9464,99.0717-6.9955,120.5119-11.1004,3.9268-.7279,28.6673,3.9596,32.3236,5.4995,42.0556,17.7555,69.2155,65.8047,69.2155,65.8047C1163.5006,612.2454,1219.475,676.4407,1219.475,676.4407Z" style="mix-blend-mode:soft-light" opacity=".45"/><path d="M1258.2888,545.6364s-432.421-36.9927-426.81652-112.7233l70.3858-28.0299S1238.2211,435.7961,1258.2888,545.6364Z"/><path fill="#2d2d2d" d="M905.54018,413.6536l-51.9449,24.071s63.7238,58.5184,284.38952,78.1072l70.4598-14.6825S1149.9794,454.5169,905.54018,413.6536Z"/><path fill="#b25734" d="M1082.4983,721.6798c-4.0269,5.2314-8.1391,10.3762-12.4032,15.367l-.3898.4562-.914.1708a214.102,214.102,0,0,1-44.8515,3.1816,250.28392,250.28392,0,0,1-44.72572-5.3909,208.6359,208.6359,0,0,1-42.939-13.9147l-10.2087-4.83c-3.3032-1.8184-6.51638-3.8057-9.7592-5.6931l-4.8354-2.8687-4.5601-3.3304q-4.5639-3.29745-8.9899-6.709l-.2717-.21-.0677-.1262c-1.5138-2.82-2.89338-5.7309-4.3305-8.6029,2.1204,2.412,4.2982,4.7853,6.3419,7.2488l-.3379-.3345c13.3878,6.3251,26.5206,12.5194,40.3867,16.9468a326.58456,326.58456,0,0,0,41.8995,11.3367,425.56309,425.56309,0,0,0,43.02782,6.5479c14.4614,1.4125,29.1353,2.2911,43.699,2.3251l-1.302.626C1072.0143,729.6794,1077.2136,725.6365,1082.4983,721.6798Z"/><path fill="#b25734" d="M1084.1274,728.5318c-3.9533-2.1724-5.6394-2.7122-7.1664-3.7778a14.88638,14.88638,0,0,1-2.3932-2.1324,34.54136,34.54136,0,0,1-3.4762-3.9039c2.9975-3.4172,7.5218-3.3534,10.9269-1.0607a8.4034,8.4034,0,0,1,3.367,4.9594A6.5209,6.5209,0,0,1,1084.1274,728.5318Z"/><path fill="#db987d" d="M963.46468,650.7071s34.45689,10.3567,31.25719,24.7785-39.01219,12.3623-54.12887-1.2483S963.46468,650.7071,963.46468,650.7071Z"/><path fill="#b25734" d="M973.18388,637.4171c-2.32688,5.0975-5.0368,9.9146-7.7318,14.7427l-.2737.4905-1.0109.4162c-4.1537,1.7104-8.30048,3.4442-12.5058,4.9815l-3.143,1.1901a10.73821,10.73821,0,0,0-2.1511,1.0811,7.47652,7.47652,0,0,0-2.6985,3.2756,7.85892,7.85892,0,0,0,.7521,7.8589,58.0411,58.0411,0,0,0,8.3322,8.8344,46.72454,46.72454,0,0,0,10.1544,6.4134,53.11035,53.11035,0,0,0,11.7305,3.5261c8.262,1.334,17.06679.8406,26.08192-.3624a54.784,54.784,0,0,1-26.64332,7.2485,44.15456,44.15456,0,0,1-27.21188-9.5149,49.41491,49.41491,0,0,1-10.08082-10.5526,16.29651,16.29651,0,0,1-.9279-17.5271,15.982,15.982,0,0,1,6.3929-6.3206,15.57228,15.57228,0,0,1,4.038-1.4462l3.2815-.7252c4.3607-1.0163,8.7799-1.8362,13.1921-2.6791l-1.2829.9055C965.26208,645.2219,969.03138,641.1793,973.18388,637.4171Z"/><path fill="#353535" d="M1040.5875,724.1667s-91.16662,5.3623-140.095-37.2325a140.77826,140.77826,0,0,1,26.2028-11.8292c5.0359,7.7907,18.5666,22.2542,51.80472,27.6689C1024.8928,710.3308,1040.5875,724.1667,1040.5875,724.1667Z"/></g></svg>