<svg xmlns="http://www.w3.org/2000/svg" viewBox="19.36 25.7994 2426.6699 2095.5703" width="2426.67px" height="2095.57px" preserveAspectRatio="none"><defs><radialGradient gradientUnits="userSpaceOnUse" cx="1232.695" cy="1073.585" r="1213.335" id="gradient-1"><stop offset="0" style="stop-color: rgb(29.412% 11.765% 30.588%)"/><stop offset="1" style="stop-color: rgb(21.949% 4.418% 23.358%)"/></radialGradient></defs><path d="M 1203.86 1512.35 C 1182.87 1508.23 1165.53 1503.4 1147.98 1502 C 1139.31 1501.31 1125.91 1503.86 1122.48 1510.48 C 1117.83 1519.49 1116.15 1538.11 1121.05 1545.08 C 1148.27 1583.76 1176.97 1621.21 1207 1656.97 C 1225.98 1679.55 1247.05 1700.34 1269.24 1718.46 C 1290.26 1735.62 1294.51 1750.42 1271.88 1768.4 C 1289.89 1791.72 1307.13 1813.2 1323.55 1835.52 C 1343.05 1862.06 1345.69 1891.52 1327.03 1919.18 C 1284.72 1981.88 1241.68 2043.96 1197.22 2104.57 C 1189.54 2115.05 1172.37 2123.41 1161.57 2120.93 C 1154.08 2119.21 1147.03 2097.76 1145.12 2084.11 C 1141.95 2061.61 1142.98 2038.28 1142.42 2015.3 C 1141.23 1966.59 1130.93 1937.78 1099.08 1896.71 C 1080.48 1914.35 1065.34 1900.7 1051.5 1886.23 C 991.558 1823.58 930.912 1761.71 873.09 1696.47 C 856.336 1677.56 847.155 1648.9 836.206 1623.69 C 809.989 1563.32 823.564 1509.71 858.864 1460.63 C 863.577 1454.08 868.769 1448.02 876.379 1438.38 C 774.959 1415.12 676.669 1392.85 578.489 1370 C 408.396 1330.41 238.303 1290.84 68.419 1250.07 C 51.321 1245.97 35.672 1233.65 19.36 1225.15 C 19.372 1221.92 19.385 1218.71 19.397 1215.48 C 28.946 1212.14 38.446 1206.09 48.044 1205.89 C 174.773 1203.08 301.527 1201.08 428.268 1198.91 C 452.067 1198.51 472.491 1193.03 495.763 1179.68 C 540.06 1154.29 589.966 1139.71 638.89 1128.96 C 663.511 1123.56 683.579 1116.7 703.917 1099.17 C 749.797 1059.6 797.494 1022.75 845.608 986.922 C 884.554 957.932 914.171 921.559 933.183 871.579 C 952.625 820.453 971.257 769.958 986.366 716.179 C 1007.24 641.855 1045.89 573.854 1080.05 505.251 C 1107.14 450.855 1154.75 430.798 1208.32 444.045 C 1216.44 446.052 1224.64 447.615 1233.18 449.465 C 1245.89 421.12 1250.96 396.589 1230.7 369.492 C 1220.42 355.714 1217.5 334.423 1214 324.402 C 1193.45 309.419 1167.81 301.348 1162.04 284.172 C 1152.08 254.508 1154.62 219.898 1178.76 193.604 C 1184.64 187.195 1187.77 172.7 1186.56 162.851 C 1181.12 118.477 1214.26 70.476 1256.25 68.828 C 1306.18 66.849 1351.04 48.655 1397.46 33.415 C 1440.39 19.321 1442.05 22.189 1467.34 64.354 C 1474.15 75.724 1491.4 78.046 1503.08 86.089 C 1516.51 95.351 1540.19 107.237 1539.65 116.398 C 1538.54 135.309 1527.5 157.632 1514.6 170.263 C 1500.54 184.027 1479.74 188.414 1463.17 196.256 C 1454.31 243.741 1446.02 293.663 1435.52 342.94 C 1425.91 388.116 1407.4 424.92 1365.89 441.823 C 1357.83 445.106 1353.83 467.501 1351.57 481.852 C 1350.76 486.985 1359.94 498.942 1365.72 500.132 C 1452.75 517.91 1517.56 574.27 1569.03 655.475 C 1590.75 689.755 1613.83 722.889 1636.89 755.964 C 1642.47 763.979 1650.4 769.771 1658.85 778.173 C 1656.71 782.947 1653.4 790.302 1651.27 795.048 C 1679.59 846.962 1721.81 848.152 1766.24 844.382 C 1801.76 841.371 1837.54 842.403 1873.03 838.977 C 1897.97 836.568 1930.25 797.184 1930.67 767.606 C 1931.07 738.946 1943.6 730.602 1964.26 731.964 C 2050.19 737.642 2136.11 743.706 2222 750.187 C 2245.25 751.936 2268.4 755.678 2294.64 758.875 C 2289.12 827.65 2283.67 895.58 2278.19 963.495 C 2277.22 975.438 2276.17 987.381 2275.05 999.309 C 2271.83 1033.76 2257.96 1049.88 2228.35 1047.35 C 2138.88 1039.71 2049.51 1030.43 1960.1 1021.88 C 1954.49 1021.33 1948.8 1020.69 1943.22 1021.25 C 1920.23 1023.6 1902.88 1018.65 1908.51 986.277 C 1840.56 990.735 1774.74 995.051 1706.65 999.524 C 1714.12 1040.33 1720.99 1077.92 1728.59 1119.47 C 1966.1 1100.73 2203.96 1081.96 2441.8 1063.19 C 2443.2 1066.59 2444.61 1069.98 2446.03 1073.38 C 2439.16 1081.58 2433.36 1091.73 2425.3 1097.7 C 2317.97 1177.32 2210.12 1255.99 2103.18 1336.3 C 2095.36 1342.18 2089.96 1358.74 2089.48 1370.66 C 2084.3 1499.72 2080.34 1628.84 2075.72 1767.89 C 1982.03 1735.87 1890.68 1704.62 1793.27 1671.32 C 1802.76 1722.47 1811.98 1769.57 1820.03 1816.93 C 1823.07 1834.86 1827.02 1854.32 1823.88 1871.39 C 1821.35 1885.13 1810.69 1901.09 1799.97 1907.01 C 1792.61 1911.07 1775.67 1903.19 1768.71 1894.46 C 1740.68 1859.28 1714.41 1822.13 1688.45 1784.8 C 1676.64 1767.81 1667.05 1748.71 1651.63 1734.93 C 1643.66 1767.85 1634.17 1771.91 1612 1767.34 C 1489.56 1742.1 1370.89 1702.14 1259.57 1638.09 C 1220.85 1615.81 1199.58 1569.74 1203.87 1512.33 L 1203.86 1512.35 Z M 1438.12 1441.69 C 1445.13 1443.87 1452.24 1446.96 1459.59 1448.26 C 1571.12 1468.1 1682.61 1488.52 1794.33 1506.86 C 1826.33 1512.11 1860.41 1525.01 1887.47 1486.68 C 1900.88 1467.7 1918.21 1451.46 1935.94 1437.87 C 2040.76 1357.55 2145.93 1277.84 2251.62 1199.08 C 2302.1 1161.46 2354 1126.44 2409.92 1086.94 C 2307 1095.98 2209.94 1106.06 2112.69 1112.66 C 1990.05 1120.96 1867.26 1126.06 1744.59 1133.95 C 1737.04 1134.44 1725.32 1145.91 1723.58 1154.48 C 1709.34 1225.02 1659.25 1236.45 1610.77 1248.92 C 1574.28 1258.31 1552.2 1234.21 1539.09 1194.88 C 1523.89 1239.03 1511.42 1281.28 1494.99 1321.34 C 1478.12 1362.44 1457.38 1401.38 1438.12 1441.72 L 1438.12 1441.69 Z M 1119.43 477.078 C 1109.62 490.598 1099.51 500.921 1093.25 513.796 C 1063.78 574.384 1034.2 634.973 1006.91 696.91 C 983.617 749.785 989.607 771.32 1035.11 800.911 C 1055.14 813.944 1078.21 820.539 1099.85 830.231 C 1106.84 833.356 1113.63 837.012 1118.04 839.192 C 1109.33 852.626 1101.42 861.945 1096.46 873.042 C 1084.82 899.078 1072.97 925.272 1064.12 952.699 C 1049.88 996.872 1023.89 1028.13 990.638 1052.46 C 937.602 1091.25 884.345 1129.68 831.285 1168.44 C 826.743 1171.76 823 1176.55 816.691 1182.84 C 878.822 1179.23 936.804 1175.04 994.835 1172.86 C 1020.65 1171.88 1041.31 1163.76 1058.27 1139.28 C 1071.67 1119.94 1088.81 1104.03 1104.74 1087.17 C 1136.19 1053.85 1167.97 1020.91 1200.01 987.395 C 1139.82 930.82 1082.42 717.985 1110.81 657.741 C 1121.53 718.1 1131.42 776.381 1142.27 834.432 C 1159.25 925.315 1201.05 990.793 1281.22 1015.88 C 1298.25 1021.22 1315.14 1028.08 1332.49 1030.91 C 1384.99 1039.47 1437.62 1047.18 1490.37 1053.07 C 1497.74 1053.89 1506.08 1042.64 1513.98 1036.97 C 1507.82 1029.35 1502.76 1019.42 1495.3 1014.53 C 1471.8 999.166 1445.27 989.13 1423.69 970.922 C 1276.72 846.905 1177.04 682.587 1119.44 477.064 L 1119.43 477.078 Z M 160.13 1225.96 C 159.959 1227.44 159.787 1228.92 159.615 1230.39 C 168.808 1231.23 178.075 1231.46 187.182 1232.96 C 290.812 1250.11 394.429 1267.36 498.021 1284.76 C 606.29 1302.94 714.485 1321.69 822.791 1339.52 C 940.363 1358.86 1057.92 1378.23 1175.68 1395.89 C 1221.41 1402.74 1220.7 1400.25 1236.09 1349.71 C 1254.33 1289.82 1274.4 1230.7 1294.27 1169.36 C 1183.77 1177.08 1074.6 1186.37 965.292 1191.81 C 863.897 1196.88 761.593 1192.37 668.114 1250.87 C 662.48 1254.4 655.73 1257.61 649.568 1257.43 C 636.202 1257.06 620.466 1258.78 610.34 1251.2 C 602.915 1245.65 602.866 1226.65 599.674 1214.19 C 454.142 1218.09 307.136 1222.05 160.143 1225.99 L 160.13 1225.96 Z M 1386.65 693.239 C 1389.76 689.999 1392.88 686.745 1396.01 683.504 C 1402.12 690.974 1408.8 697.928 1414.25 705.999 C 1449.07 757.484 1483.03 809.786 1518.85 860.296 C 1524.54 868.325 1540.32 874.949 1547.82 871.493 C 1585.88 853.959 1613.85 820.926 1637.91 786.918 C 1609.04 744.323 1581.43 705.684 1555.82 665.354 C 1506.27 587.331 1446.03 529.179 1360.58 515.201 C 1347.98 549.624 1321.74 566.054 1292.71 558.456 C 1256.47 548.965 1226.86 511.416 1227.95 462.755 L 1183.99 462.755 C 1165.97 600.894 1443.98 945.788 1554.37 982.32 C 1554.82 956.455 1556.35 932.899 1555.33 909.501 C 1554.33 886.848 1539.86 892.44 1527.56 894.16 C 1525.69 894.418 1523.01 890.519 1521.27 888.01 C 1476.36 823.134 1431.52 758.187 1386.66 693.254 L 1386.65 693.239 Z M 1644.46 1501.6 C 1644.21 1503.02 1643.97 1504.42 1643.72 1505.84 C 1656.73 1510.97 1670.26 1514.82 1682.68 1521.47 C 1730.45 1547.04 1787.86 1561.18 1790.94 1642.16 C 1791.1 1646.4 1798.87 1652.21 1803.92 1653.93 C 1888.54 1682.77 1973.29 1711.08 2058.13 1739.55 C 2062.61 1612.62 2066.97 1488.88 2071.71 1354.76 C 2012.31 1404.99 1958.32 1449.19 1905.86 1495.73 C 1883.03 1515.99 1864.67 1543.36 1830.84 1534.86 C 1810.84 1529.83 1790.26 1527.82 1769.99 1524.2 C 1728.13 1516.75 1686.3 1509.15 1644.46 1501.6 Z M 1087.22 855.221 C 1052.01 831.321 1018.25 808.41 986.415 786.804 C 964.985 834.374 942.278 885.486 918.798 936.111 C 915.128 944.025 908.672 950.936 902.24 956.24 C 834.255 1012.23 766.539 1068.74 697.424 1122.78 C 681.579 1135.17 660.983 1140.34 641.946 1145.92 C 599.539 1158.38 556.74 1169 514.112 1180.37 C 514.824 1185.33 515.548 1190.31 516.26 1195.27 C 569.873 1191.83 623.498 1188.39 678.289 1184.86 C 657.006 1199.56 636.177 1213.94 615.348 1228.33 C 616.416 1232.75 617.496 1237.15 618.564 1241.56 C 627.929 1240.88 637.773 1242.14 646.598 1239.2 C 754.449 1203.27 848.002 1134.48 944.377 1069.92 C 1022.35 1017.67 1057.31 936.985 1087.22 855.221 Z M 1925.66 1005 C 1968.88 1010.03 2010.41 1015.63 2052.07 1019.52 C 2111.63 1025.1 2171.32 1029 2230.89 1034.55 C 2247.61 1036.11 2255.67 1027.57 2257.41 1009.82 C 2264.37 939.179 2270.93 868.497 2277.44 799.736 C 2229.88 831.923 2183.66 864.138 2136.5 894.361 C 2126.83 900.555 2111.13 905.315 2102.59 900.383 C 2076.17 885.128 2050.39 867.12 2027.13 846.016 C 1998.68 820.195 1973.01 790.173 1944.39 760.122 C 1941.69 799.779 1939.16 836.812 1936.48 875.995 C 1946.57 875.995 1953.82 873.759 1959.23 876.483 C 1969.21 881.486 1986.23 890.132 1985.84 895.967 C 1984.94 909.53 1977.06 923.996 1968.81 934.778 C 1964.27 940.713 1952.18 937.846 1945.47 942.677 C 1937.72 948.269 1929.07 956.785 1926.42 966.19 C 1923.14 977.803 1925.63 991.639 1925.63 1005 L 1925.66 1005 Z M 1410.78 166.263 C 1388.67 184.055 1367.33 189.962 1346.48 158.736 C 1333.95 139.968 1322.34 150.119 1314.61 167.768 C 1306.16 187.052 1299.29 207.654 1288.7 225.174 C 1267.43 260.343 1243.3 258.508 1220.44 225.49 C 1213.74 215.812 1199.7 213.074 1189.02 207.152 C 1183.15 226.938 1172.83 246.852 1173.24 266.48 C 1173.45 276.888 1191.23 292.502 1202.98 295.455 C 1218.12 299.254 1224.02 303.097 1227.76 322.179 C 1238.12 374.912 1270.72 405.736 1313.41 420.102 C 1362.76 436.733 1398.97 416.145 1415.93 359.47 C 1427.78 319.885 1431.47 277.089 1441.29 236.544 C 1449.41 202.995 1444.04 179.281 1410.79 166.277 L 1410.78 166.263 Z M 1927.97 828.84 C 1908.35 839.378 1893.19 853.428 1877.11 855.049 C 1825.83 860.21 1774.16 863.364 1722.76 861.687 C 1704.28 861.085 1685.6 845.844 1668.15 834.848 C 1658.76 828.926 1651.78 817.829 1645.08 810.546 C 1615.73 837.199 1588.57 861.844 1559.72 888.024 C 1584.24 910.089 1608.4 934.018 1634.53 954.505 C 1649.64 966.348 1667.97 980.255 1684.79 980.155 C 1761.1 979.739 1837.4 974.664 1913.29 971.28 L 1913.29 933.014 C 1929.07 929.286 1944.02 927.552 1957.72 921.774 C 1964.87 918.763 1969.82 908.627 1975.77 901.702 C 1968.94 897.616 1962.37 891.207 1955.19 890.046 C 1947.27 888.77 1938.53 891.279 1930.62 894.003 C 1912.57 900.211 1894.83 907.537 1876.95 914.419 C 1875.81 911.465 1874.67 908.512 1873.53 905.558 C 1888.28 897.788 1907.63 894.261 1916.51 881.085 C 1925.81 867.307 1925.02 844.267 1927.98 828.812 L 1927.97 828.84 Z M 1164.63 2105.38 C 1173.25 2100.59 1179.79 2099.37 1182.87 2094.88 C 1227.99 2029.38 1273.37 1964.04 1316.56 1896.81 C 1322.15 1888.11 1320.4 1865.1 1314.27 1855.51 C 1297.3 1829.03 1276.22 1806.16 1259.13 1784.81 C 1208.53 1823.68 1162.58 1858.98 1114.62 1895.82 C 1173.15 1948.8 1153.41 2031.22 1164.63 2105.38 Z M 1657.07 1702.37 C 1682.14 1740.32 1700.12 1768.25 1718.76 1795.55 C 1736.2 1821.1 1753.69 1846.72 1772.59 1870.76 C 1778.49 1878.28 1789.06 1880.8 1797.51 1885.62 C 1800.99 1875.15 1805.46 1864.94 1807.62 1854.12 C 1809.04 1846.98 1807.94 1838.75 1806.6 1831.34 C 1793.82 1760.31 1782.37 1688.85 1766.67 1618.7 C 1762.63 1600.66 1746.52 1584.61 1733.09 1571.72 C 1723.65 1562.66 1709.37 1560.49 1697.21 1555.29 C 1682.07 1610.8 1666.91 1666.32 1657.08 1702.36 L 1657.07 1702.37 Z M 1214.79 1433.06 C 939.296 1387.79 665.991 1342.87 392.686 1297.94 C 392.489 1299.41 392.281 1300.89 392.084 1302.37 C 662.075 1364.55 932.079 1426.74 1204.14 1489.39 C 1208.21 1467.89 1211.74 1449.14 1214.77 1433.05 L 1214.79 1433.06 Z M 1962.44 742.287 C 1960.71 747.334 1958.99 752.395 1957.26 757.441 C 1993.87 790.589 2031.29 822.589 2066.81 857.257 C 2097.63 887.336 2126.52 889.2 2159.94 862.676 C 2197.67 832.726 2237.45 806.302 2276.34 778.345 C 2275.28 775.262 2274.22 772.165 2273.16 769.069 C 2169.59 760.137 2066.01 751.205 1962.44 742.273 L 1962.44 742.287 Z M 1167.89 462.282 C 1135.04 463.214 1133.29 465.795 1141.47 499.014 C 1144.3 510.469 1146.51 522.211 1150.26 533.237 C 1197.94 673.641 1274.14 791.263 1365.69 895.924 C 1407.34 943.538 1455.92 980.269 1511.02 1003.78 C 1520.22 1007.71 1530.95 1006.75 1540.98 1008.05 C 1520.43 986.133 1498.99 973.416 1479.41 957.559 C 1393.85 888.311 1324.81 799.349 1261.39 704.078 C 1214.1 633.038 1174.46 557.596 1167.91 462.282 L 1167.89 462.282 Z M 1561.54 1020.2 C 1554.05 1031.04 1546.19 1041.53 1539.29 1052.82 C 1535.98 1058.21 1531.53 1065.89 1532.61 1071.15 C 1540.81 1111.27 1548.75 1151.63 1560.1 1190.58 C 1564.01 1203.99 1576.27 1221.62 1586.6 1223.56 C 1626.82 1231.11 1662.03 1214.28 1689.91 1186.72 C 1634.21 1141.62 1607.55 1069.47 1561.53 1020.18 L 1561.54 1020.2 Z M 1567.98 917.731 C 1577.42 957.43 1554.93 989.66 1579.41 1020.77 C 1610.42 1060.2 1637.88 1103.41 1668.08 1143.79 C 1675.88 1154.24 1688.14 1160.14 1699.4 1168.97 C 1710.75 1128.17 1710.51 1057.86 1692.12 1014.66 C 1685.32 998.693 1660.15 993.646 1643.67 982.936 C 1633.89 976.57 1624.34 969.502 1615.37 961.674 C 1601.44 949.53 1588.1 936.469 1567.98 917.716 L 1567.98 917.731 Z M 1334.81 475.544 C 1299.29 480.261 1275.91 455.902 1257.99 419.959 C 1236.72 486.469 1238.34 501.666 1268.5 527.889 C 1290.92 547.388 1318.39 546.14 1337.24 528.95 C 1336.34 508.95 1335.61 493.093 1334.83 475.558 L 1334.81 475.544 Z" style="fill: url(&quot;#gradient-1&quot;);" id="object-0" transform="matrix(1, 0, 0, 1, -4.547473508864641e-13, 0)"/></svg>