<svg xmlns="http://www.w3.org/2000/svg" width="2500" height="2500" viewBox="0 0 2500 2500"><path d="m1323.01,1685.3c-17.1-2.87-31.23-6.24-45.53-7.22-7.06-.48-17.98,1.3-20.77,5.92-3.79,6.28-5.16,19.27-1.17,24.13,22.18,26.98,45.56,53.1,70.03,78.04,15.46,15.75,32.63,30.25,50.71,42.89,17.12,11.97,20.58,22.29,2.15,34.83,14.67,16.27,28.72,31.25,42.09,46.82,15.89,18.51,18.04,39.06,2.84,58.35-34.47,43.73-69.54,87.03-105.76,129.31-6.26,7.31-20.25,13.14-29.05,11.41-6.1-1.2-11.84-16.16-13.4-25.68-2.58-15.7-1.74-31.97-2.2-48-.97-33.97-9.36-54.07-35.31-82.71-15.15,12.3-27.49,2.78-38.76-7.31-48.84-43.7-98.25-86.85-145.36-132.36-13.65-13.19-21.13-33.18-30.05-50.76-21.36-42.11-10.3-79.5,18.46-113.73,3.84-4.57,8.07-8.8,14.27-15.52-82.63-16.23-162.71-31.76-242.7-47.7-138.58-27.61-277.16-55.21-415.57-83.65-13.93-2.86-26.68-11.45-39.97-17.38.01-2.25.02-4.49.03-6.74,7.78-2.33,15.52-6.55,23.34-6.69,103.25-1.96,206.52-3.36,309.78-4.87,19.39-.28,36.03-4.1,54.99-13.41,36.09-17.71,76.75-27.88,116.61-35.38,20.06-3.77,36.41-8.55,52.98-20.78,37.38-27.6,76.24-53.3,115.44-78.29,31.73-20.22,55.86-45.59,71.35-80.45,15.84-35.66,31.02-70.88,43.33-108.39,17.01-51.84,48.5-99.27,76.33-147.12,22.07-37.94,60.86-51.93,104.5-42.69,6.62,1.4,13.3,2.49,20.26,3.78,10.35-19.77,14.48-36.88-2.02-55.78-8.38-9.61-10.76-24.46-13.61-31.45-16.74-10.45-37.63-16.08-42.33-28.06-8.12-20.69-6.05-44.83,13.62-63.17,4.79-4.47,7.34-14.58,6.35-21.45-4.43-30.95,22.57-64.43,56.78-65.58,40.68-1.38,77.23-14.07,115.05-24.7,34.98-9.83,36.33-7.83,56.93,21.58,5.55,7.93,19.61,9.55,29.12,15.16,10.94,6.46,30.24,14.75,29.8,21.14-.91,13.19-9.9,28.76-20.41,37.57-11.46,9.6-28.4,12.66-41.9,18.13-7.22,33.12-13.98,67.94-22.53,102.31-7.83,31.51-22.91,57.18-56.73,68.97-6.57,2.29-9.83,17.91-11.67,27.92-.66,3.58,6.82,11.92,11.53,12.75,70.91,12.4,123.71,51.71,165.64,108.35,17.7,23.91,36.5,47.02,55.29,70.09,4.55,5.59,11.01,9.63,17.89,15.49-1.74,3.33-4.44,8.46-6.17,11.77,23.07,36.21,57.47,37.04,93.67,34.41,28.94-2.1,58.09-1.38,87-3.77,20.32-1.68,46.62-29.15,46.96-49.78.33-19.99,10.54-25.81,27.37-24.86,70.01,3.96,140.01,8.19,209.99,12.71,18.94,1.22,37.8,3.83,59.18,6.06-4.5,47.97-8.94,95.35-13.4,142.72-.79,8.33-1.65,16.66-2.56,24.98-2.62,24.03-13.92,35.27-38.05,33.51-72.89-5.33-145.7-11.8-218.55-17.77-4.57-.38-9.21-.83-13.75-.44-18.73,1.64-32.87-1.81-28.28-24.39-55.36,3.11-108.99,6.12-164.46,9.24,6.08,28.46,11.68,54.68,17.87,83.66,193.51-13.07,387.3-26.16,581.08-39.25,1.14,2.37,2.29,4.73,3.44,7.1-5.59,5.72-10.32,12.8-16.89,16.97-87.44,55.53-175.31,110.4-262.44,166.42-6.37,4.1-10.77,15.65-11.16,23.96-4.22,90.02-7.45,180.08-11.21,277.07-76.33-22.34-150.76-44.13-230.12-67.36,7.73,35.68,15.24,68.53,21.8,101.56,2.48,12.51,5.7,26.08,3.14,37.99-2.06,9.58-10.75,20.71-19.48,24.84-6,2.83-19.8-2.66-25.47-8.75-22.84-24.54-44.24-50.45-65.39-76.49-9.62-11.85-17.44-25.17-30-34.78-6.49,22.96-14.22,25.79-32.29,22.6-99.75-17.6-196.44-45.47-287.13-90.15-31.55-15.54-48.88-47.67-45.38-87.71Zm190.86-49.28c5.71,1.52,11.5,3.67,17.49,4.58,90.87,13.84,181.7,28.08,272.72,40.87,26.07,3.66,53.84,12.66,75.89-14.07,10.92-13.24,25.04-24.57,39.49-34.05,85.4-56.02,171.08-111.62,257.19-166.55,41.13-26.24,83.41-50.67,128.97-78.22-83.85,6.31-162.93,13.34-242.16,17.94-99.92,5.79-199.96,9.35-299.9,14.85-6.15.34-15.7,8.34-17.12,14.32-11.6,49.2-52.41,57.17-91.91,65.87-29.73,6.55-47.72-10.26-58.4-37.69-12.38,30.79-22.54,60.26-35.93,88.2-13.74,28.67-30.64,55.83-46.33,83.97Zm-259.65-672.81c-7.99,9.43-16.23,16.63-21.33,25.61-24.01,42.26-48.11,84.52-70.34,127.72-18.98,36.88-14.1,51.9,22.97,72.54,16.32,9.09,35.12,13.69,52.75,20.45,5.69,2.18,11.23,4.73,14.82,6.25-7.1,9.37-13.54,15.87-17.58,23.61-9.49,18.16-19.14,36.43-26.35,55.56-11.6,30.81-32.78,52.61-59.87,69.58-43.21,27.06-86.6,53.86-129.83,80.9-3.7,2.31-6.75,5.65-11.89,10.04,50.62-2.52,97.86-5.44,145.14-6.96,21.03-.68,37.86-6.35,51.68-23.42,10.92-13.49,24.88-24.59,37.86-36.35,25.63-23.24,51.52-46.21,77.62-69.59-49.04-39.46-95.8-187.91-72.67-229.93,8.73,42.1,16.79,82.75,25.63,123.24,13.83,63.39,47.89,109.06,113.21,126.56,13.87,3.72,27.63,8.51,41.77,10.48,42.77,5.97,85.65,11.35,128.63,15.46,6,.57,12.8-7.28,19.23-11.23-5.02-5.32-9.14-12.24-15.22-15.65-19.14-10.72-40.76-17.72-58.34-30.42-119.74-86.5-200.95-201.11-247.88-344.46Zm-781.57,522.34c-.14,1.03-.28,2.06-.42,3.09,7.49.58,15.04.74,22.46,1.79,84.43,11.96,168.85,23.99,253.25,36.13,88.21,12.68,176.36,25.76,264.6,38.19,95.79,13.49,191.57,27,287.51,39.32,37.26,4.78,36.68,3.04,49.22-32.21,14.86-41.77,31.21-83.01,47.4-125.79-90.03,5.38-178.97,11.86-268.03,15.66-82.61,3.53-165.96.39-242.12,41.19-4.59,2.46-10.09,4.7-15.11,4.58-10.89-.26-23.71.94-31.96-4.35-6.05-3.87-6.09-17.12-8.69-25.81-118.57,2.72-238.34,5.48-358.1,8.23Zm999.28-371.57c2.54-2.26,5.08-4.53,7.63-6.79,4.98,5.21,10.42,10.06,14.86,15.69,28.37,35.91,56.04,72.39,85.22,107.62,4.64,5.6,17.49,10.22,23.6,7.81,31.01-12.23,53.8-35.27,73.4-58.99-23.52-29.71-46.01-56.66-66.88-84.79-40.37-54.42-89.45-94.98-159.07-104.73-10.26,24.01-31.64,35.47-55.29,30.17-29.53-6.62-53.65-32.81-52.76-66.75h-35.82c-14.68,96.35,211.82,336.91,301.76,362.39.37-18.04,1.61-34.47.78-50.79-.81-15.8-12.6-11.9-22.62-10.7-1.53.18-3.71-2.54-5.13-4.29-36.59-45.25-73.12-90.55-109.67-135.84Zm210.05,563.82c-.2.99-.4,1.97-.6,2.96,10.6,3.58,21.62,6.26,31.74,10.9,38.92,17.84,85.69,27.7,88.2,84.18.13,2.96,6.46,7.01,10.58,8.21,68.94,20.12,137.99,39.86,207.11,59.72,3.65-88.53,7.2-174.84,11.06-268.39-48.39,35.04-92.38,65.87-135.12,98.33-18.6,14.13-33.56,33.22-61.12,27.29-16.3-3.51-33.06-4.91-49.58-7.43-34.1-5.2-68.18-10.5-102.27-15.77Zm-454-450.84c-28.69-16.67-56.19-32.65-82.13-47.72-17.46,33.18-35.96,68.83-55.09,104.14-2.99,5.52-8.25,10.34-13.49,14.04-55.39,39.05-110.56,78.47-166.87,116.16-12.91,8.64-29.69,12.25-45.2,16.14-34.55,8.69-69.42,16.1-104.15,24.03.58,3.46,1.17,6.93,1.75,10.39,43.68-2.4,87.37-4.8,132.01-7.26-17.34,10.25-34.31,20.28-51.28,30.32.87,3.08,1.75,6.15,2.62,9.23,7.63-.48,15.65.4,22.84-1.65,87.87-25.06,164.09-73.04,242.61-118.07,63.53-36.44,92.01-92.72,116.38-149.75Zm683.1,104.47c35.21,3.51,69.05,7.41,102.99,10.13,48.53,3.89,97.16,6.61,145.69,10.48,13.62,1.09,20.19-4.87,21.61-17.25,5.67-49.27,11.01-98.57,16.32-146.53-38.75,22.45-76.41,44.92-114.83,66-7.88,4.32-20.67,7.64-27.63,4.2-21.52-10.64-42.53-23.2-61.48-37.92-23.18-18.01-44.09-38.95-67.41-59.91-2.2,27.66-4.26,53.49-6.44,80.82,8.22,0,14.12-1.56,18.53.34,8.13,3.49,22,9.52,21.68,13.59-.73,9.46-7.15,19.55-13.87,27.07-3.7,4.14-13.55,2.14-19.02,5.51-6.31,3.9-13.36,9.84-15.52,16.4-2.67,8.1-.64,17.75-.64,27.07Zm-419.49-585.01c-18.01,12.41-35.4,16.53-52.38-5.25-10.21-13.09-19.67-6.01-25.97,6.3-6.88,13.45-12.48,27.82-21.11,40.04-17.33,24.53-36.99,23.25-55.61.22-5.46-6.75-16.9-8.66-25.6-12.79-4.78,13.8-13.19,27.69-12.86,41.38.17,7.26,14.66,18.15,24.23,20.21,12.34,2.65,17.14,5.33,20.19,18.64,8.44,36.78,35,58.28,69.78,68.3,40.21,11.6,69.71-2.76,83.53-42.29,9.65-27.61,12.66-57.46,20.66-85.74,6.62-23.4,2.24-39.94-24.85-49.01Zm421.37,462.14c-15.98,7.35-28.33,17.15-41.43,18.28-41.78,3.6-83.88,5.8-125.76,4.63-15.05-.42-30.27-11.05-44.49-18.72-7.65-4.13-13.34-11.87-18.8-16.95-23.91,18.59-46.04,35.78-69.54,54.04,19.98,15.39,39.66,32.08,60.95,46.37,12.31,8.26,27.24,17.96,40.95,17.89,62.17-.29,124.33-3.83,186.16-6.19v-26.69c12.86-2.6,25.04-3.81,36.2-7.84,5.83-2.1,9.86-9.17,14.71-14-5.57-2.85-10.92-7.32-16.77-8.13-6.45-.89-13.57.86-20.02,2.76-14.7,4.33-29.16,9.44-43.72,14.24-.93-2.06-1.86-4.12-2.79-6.18,12.02-5.42,27.78-7.88,35.02-17.07,7.57-9.61,6.93-25.68,9.34-36.46Zm-621.91,890.37c7.02-3.34,12.35-4.19,14.86-7.32,36.76-45.69,73.73-91.26,108.92-138.15,4.55-6.07,3.13-22.12-1.87-28.81-13.82-18.47-31-34.42-44.92-49.31-41.23,27.11-78.66,51.73-117.74,77.43,47.69,36.95,31.61,94.44,40.75,146.16Zm401.2-281.09c20.43,26.47,35.08,45.95,50.26,64.99,14.21,17.82,28.46,35.69,43.86,52.46,4.81,5.24,13.42,7,20.3,10.36,2.84-7.3,6.48-14.42,8.24-21.97,1.16-4.98.26-10.72-.83-15.89-10.41-49.54-19.74-99.38-32.53-148.31-3.29-12.58-16.42-23.78-27.36-32.77-7.69-6.32-19.33-7.83-29.23-11.46-12.34,38.72-24.69,77.44-32.7,102.58Zm-360.34-187.84c-224.45-31.58-447.12-62.91-669.79-94.25-.16,1.03-.33,2.06-.49,3.09,219.97,43.37,439.95,86.75,661.61,130.45,3.31-15,6.19-28.08,8.66-39.3Zm609.14-481.81c-1.41,3.52-2.81,7.05-4.22,10.57,29.82,23.12,60.31,45.44,89.25,69.62,25.11,20.98,48.65,22.28,75.88,3.78,30.74-20.89,63.15-39.32,94.83-58.82-.86-2.15-1.73-4.31-2.59-6.47-84.38-6.23-168.77-12.46-253.15-18.69Zm-647.35-195.3c-26.76.65-28.19,2.45-21.52,25.62,2.3,7.99,4.1,16.18,7.16,23.87,38.85,97.93,100.93,179.97,175.52,252.97,33.93,33.21,73.51,58.83,118.4,75.23,7.5,2.74,16.24,2.07,24.41,2.98-16.74-15.29-34.21-24.16-50.16-35.22-69.71-48.3-125.96-110.35-177.63-176.8-38.53-49.55-70.82-102.17-76.16-168.65Zm320.72,389.14c-6.1,7.56-12.5,14.88-18.13,22.75-2.69,3.76-6.32,9.12-5.44,12.79,6.68,27.98,13.15,56.13,22.4,83.3,3.18,9.35,13.17,21.65,21.59,23,32.77,5.27,61.45-6.47,84.17-25.69-45.38-31.46-67.1-81.78-104.6-116.16Zm5.25-71.47c7.69,27.69-10.63,50.17,9.31,71.87,25.27,27.5,47.64,57.64,72.24,85.8,6.36,7.29,16.35,11.41,25.52,17.57,9.25-28.46,9.05-77.5-5.93-107.63-5.54-11.14-26.05-14.66-39.47-22.13-7.97-4.44-15.75-9.37-23.06-14.83-11.35-8.47-22.22-17.58-38.61-30.66Zm-189.97-308.42c-28.94,3.29-47.99-13.7-62.59-38.77-17.33,46.39-16.01,56.99,8.56,75.28,18.27,13.6,40.65,12.73,56.01.74-.74-13.95-1.33-25.01-1.97-37.24Z"/><path d="m2049.29,1045.66h-351.61c14.51-11,332.99-8.73,351.61,0Z"/><path d="m1796.01,2115.69h-293.71c15.62-14.04,255.25-12.99,293.71,0Z"/><path d="m745.04,1381.21c-94.38,10.85-189.1,14.46-284.09,12.29-.12-2.35-.25-4.71-.37-7.06,94.49-4.21,188.98-8.42,283.46-12.63.33,2.47.67,4.94,1,7.4Z"/><path d="m547.34,1348.16c50.02-3.55,100.03-7.1,150.05-10.65.21,2.59.41,5.17.62,7.76-49.52,9.94-99.64,12.94-150.23,10.33-.14-2.48-.29-4.96-.43-7.44Z"/><path d="m1660.44,968.16h119.98c-.09,1.6-.18,3.2-.27,4.8h-120.15c.15-1.6.29-3.2.44-4.8Z"/><path d="m1637.91,2152.64h-74.97c-.05-1.31-.1-2.61-.15-3.92h74.97c.05,1.31.1,2.61.15,3.92Z"/><path d="m1413.97,850.5c14.65,3.69,26.55,6.68,41.82,10.53v-44.72c3.21-.01,6.42-.02,9.63-.03,0,15.95.21,31.91-.26,47.85-.06,2.11-3.24,4.8-5.59,6.06-11.35,6.07-34.97-2.96-45.6-19.69Z"/><path d="m1385.95,860.83c10.86,13.75,20.66,26.15,30.43,38.55-23.95-1.79-34.64-15.12-30.43-38.55Z"/></svg>